<?xml version="1.0" encoding="UTF-8"?>
<svg version="1.1" xmlns="http://www.w3.org/2000/svg" width="666" height="375">
<path d="M0 0 C4.95 0 9.9 0 15 0 C17.31 9.9 19.62 19.8 22 30 C23.23288541 21.99868271 23.23288541 21.99868271 24.45263672 13.99536133 C24.61006348 12.9927124 24.76749023 11.99006348 24.9296875 10.95703125 C25.08679199 9.93585205 25.24389648 8.91467285 25.40576172 7.86254883 C25.98835057 5.05611735 26.85107872 2.61979304 28 0 C30.14576637 -0.02685938 32.29162645 -0.04633088 34.4375 -0.0625 C35.63246094 -0.07410156 36.82742188 -0.08570313 38.05859375 -0.09765625 C41 0 41 0 42 1 C42.0988747 2.73852892 42.12799029 4.48107439 42.12939453 6.22241211 C42.13254669 7.3370433 42.13569885 8.4516745 42.13894653 9.6000824 C42.1369223 10.81357864 42.13489807 12.02707489 42.1328125 13.27734375 C42.13376923 14.51416397 42.13472595 15.75098419 42.13571167 17.02528381 C42.13656897 20.32072686 42.13252865 23.61612322 42.12695312 26.91156006 C42.12500355 28.93381248 42.12694386 30.95602145 42.13037109 32.97827148 C42.13653099 36.84881625 42.1358042 40.71929634 42.1328125 44.58984375 C42.13483673 45.80131577 42.13686096 47.01278778 42.13894653 48.26097107 C42.13421829 49.9376461 42.13421829 49.9376461 42.12939453 51.64819336 C42.12859894 52.63556992 42.12780334 53.62294647 42.12698364 54.64024353 C42 57 42 57 41 59 C37.7 59 34.4 59 31 59 C30.505 51.575 30.505 51.575 30 44 C29.319375 47.155625 29.319375 47.155625 28.625 50.375 C27.25 56.75 27.25 56.75 25 59 C22.0625 59.75 22.0625 59.75 19 60 C16 58 16 58 15.29223633 56.02880859 C15.14036865 55.24328613 14.98850098 54.45776367 14.83203125 53.6484375 C14.59963745 52.49867432 14.59963745 52.49867432 14.36254883 51.32568359 C14.18103271 50.35195801 13.9995166 49.37823242 13.8125 48.375 C13.214375 45.28125 12.61625 42.1875 12 39 C11.67 45.6 11.34 52.2 11 59 C4.565 59.495 4.565 59.495 -2 60 C-1.67 59.01 -1.34 58.02 -1 57 C-0.88373271 55.14471321 -0.82339944 53.2857064 -0.79467773 51.42700195 C-0.77473251 50.28604568 -0.75478729 49.14508942 -0.73423767 47.96955872 C-0.71752518 46.73823715 -0.70081268 45.50691559 -0.68359375 44.23828125 C-0.66281265 42.97735153 -0.64203156 41.71642181 -0.62062073 40.4172821 C-0.56627878 37.06854542 -0.51603834 33.71979795 -0.46777344 30.37097168 C-0.41749643 26.95233771 -0.36184276 23.53379174 -0.30664062 20.11523438 C-0.19946496 13.4102242 -0.09819188 6.70514752 0 0 Z " fill="#BE0709" transform="translate(285,158)"/>
<path d="M0 0 C1.00289062 0.10183594 2.00578125 0.20367187 3.0390625 0.30859375 C3.80992187 0.39238281 4.58078125 0.47617188 5.375 0.5625 C9.02613305 9.0478148 11.68214936 17.73593403 14.375 26.5625 C14.705 17.9825 15.035 9.4025 15.375 0.5625 C19.005 0.5625 22.635 0.5625 26.375 0.5625 C28.11799388 2.30549388 27.50258682 4.70656252 27.50439453 7.07617188 C27.50754669 8.25409302 27.51069885 9.43201416 27.51394653 10.64562988 C27.5119223 11.92788452 27.50989807 13.21013916 27.5078125 14.53125 C27.50876923 15.83703003 27.50972595 17.14281006 27.51071167 18.48815918 C27.51218833 21.25562722 27.51003511 24.02306304 27.50537109 26.79052734 C27.49967381 30.34512649 27.50295298 33.89965014 27.50894356 37.45424652 C27.51341747 40.83408714 27.51028886 44.21390723 27.5078125 47.59375 C27.50983673 48.87600464 27.51186096 50.15825928 27.51394653 51.47937012 C27.50921829 53.24625183 27.50921829 53.24625183 27.50439453 55.04882812 C27.50359894 56.09171997 27.50280334 57.13461182 27.50198364 58.20910645 C27.375 60.5625 27.375 60.5625 26.375 61.5625 C24.56572719 61.68737758 22.75103893 61.73820846 20.9375 61.75 C19.94878906 61.76417969 18.96007812 61.77835938 17.94140625 61.79296875 C15.375 61.5625 15.375 61.5625 13.375 59.5625 C12.66390171 57.69717615 12.0262205 55.80349452 11.4296875 53.8984375 C11.10983887 52.8882959 10.78999023 51.8781543 10.46044922 50.83740234 C9.86127686 48.90695068 9.86127686 48.90695068 9.25 46.9375 C7.97125 42.85375 6.6925 38.77 5.375 34.5625 C5.045 43.4725 4.715 52.3825 4.375 61.5625 C2.00886544 62.74556728 0.50719264 62.69604608 -2.125 62.6875 C-2.9190625 62.69007813 -3.713125 62.69265625 -4.53125 62.6953125 C-6.625 62.5625 -6.625 62.5625 -8.625 61.5625 C-8.65040625 54.00025146 -8.66789056 46.43801397 -8.67993164 38.87573242 C-8.68495275 36.30443917 -8.69177092 33.73314877 -8.70043945 31.16186523 C-8.71260235 27.46076759 -8.71825063 23.75970777 -8.72265625 20.05859375 C-8.72781754 18.91353867 -8.73297882 17.76848358 -8.73829651 16.58872986 C-8.73906673 5.56942793 -8.73906673 5.56942793 -7.625 0.5625 C-4.89657939 -0.80171031 -3.01546682 -0.31557211 0 0 Z " fill="#C70304" transform="translate(239.625,156.4375)"/>
<path d="M0 0 C0.73734375 0.00773438 1.4746875 0.01546875 2.234375 0.0234375 C3.34039062 0.01183594 3.34039062 0.01183594 4.46875 0 C9.9810554 0.0201179 9.9810554 0.0201179 12.234375 2.2734375 C12.73339844 4.17993164 12.73339844 4.17993164 13.09375 6.55859375 C13.23723877 7.46641602 13.38072754 8.37423828 13.52856445 9.30957031 C13.67898193 10.30827148 13.82939941 11.30697266 13.984375 12.3359375 C15.17715158 19.93331581 16.43990342 27.50905969 17.86328125 35.06640625 C18.00238922 35.80919327 18.14149719 36.55198029 18.28482056 37.317276 C18.84230275 40.29097883 19.40038333 43.2644519 19.97375488 46.23513794 C20.37658826 48.32471104 20.76920414 50.41598902 21.16015625 52.5078125 C21.39130127 53.71663086 21.62244629 54.92544922 21.8605957 56.17089844 C22.20036974 58.99117827 22.2401368 60.65432301 21.234375 63.2734375 C20.234375 64.2734375 20.234375 64.2734375 17.546875 64.40625 C16.45375 64.40367187 15.360625 64.40109375 14.234375 64.3984375 C13.14125 64.40101563 12.048125 64.40359375 10.921875 64.40625 C8.234375 64.2734375 8.234375 64.2734375 7.234375 63.2734375 C6.99955807 61.09050976 6.82074177 58.90140576 6.671875 56.7109375 C6.54619141 54.91462891 6.54619141 54.91462891 6.41796875 53.08203125 C6.35738281 52.15519531 6.29679687 51.22835937 6.234375 50.2734375 C3.594375 50.6034375 0.954375 50.9334375 -1.765625 51.2734375 C-1.92998047 52.41232422 -1.92998047 52.41232422 -2.09765625 53.57421875 C-2.33548828 55.06501953 -2.33548828 55.06501953 -2.578125 56.5859375 C-2.72894531 57.57207031 -2.87976563 58.55820313 -3.03515625 59.57421875 C-3.82897092 62.50751253 -4.21169562 63.64420669 -6.765625 65.2734375 C-9.68359375 65.56640625 -9.68359375 65.56640625 -12.953125 65.4609375 C-14.03980469 65.43386719 -15.12648437 65.40679687 -16.24609375 65.37890625 C-17.49326172 65.32669922 -17.49326172 65.32669922 -18.765625 65.2734375 C-20.02239833 61.5031175 -19.35399375 59.65048282 -18.4375 55.796875 C-18.21428322 54.83955727 -18.21428322 54.83955727 -17.98655701 53.86289978 C-17.66774559 52.49732335 -17.3455692 51.13252896 -17.02035522 49.76846313 C-16.17887511 46.2339821 -15.36455411 42.69329023 -14.55078125 39.15234375 C-14.39140579 38.46051498 -14.23203033 37.76868622 -14.06782532 37.05589294 C-12.06801336 28.31483115 -10.56181547 19.52829462 -9.21875 10.6640625 C-9.04859375 9.56578125 -8.8784375 8.4675 -8.703125 7.3359375 C-8.50009766 5.93021484 -8.50009766 5.93021484 -8.29296875 4.49609375 C-7.1558677 -0.29657658 -4.37511348 0.01596757 0 0 Z M2.234375 26.2734375 C1.89564987 27.68882467 1.56362876 29.10581713 1.234375 30.5234375 C1.04875 31.31234375 0.863125 32.10125 0.671875 32.9140625 C0.11282672 35.52899752 0.11282672 35.52899752 0.234375 39.2734375 C1.554375 38.9434375 2.874375 38.6134375 4.234375 38.2734375 C4.275625 37.0359375 4.316875 35.7984375 4.359375 34.5234375 C4.38257813 33.82734375 4.40578125 33.13125 4.4296875 32.4140625 C4.20686042 29.97187775 3.443525 28.38706979 2.234375 26.2734375 Z " fill="#CA0203" transform="translate(205.765625,154.7265625)"/>
<path d="M0 0 C1.18851562 0.00902344 2.37703125 0.01804688 3.6015625 0.02734375 C4.51679688 0.03894531 5.43203125 0.05054688 6.375 0.0625 C5.87564935 5.79385299 4.24742421 9.94688492 1.5625 15 C1.21896484 15.66451172 0.87542969 16.32902344 0.52148438 17.01367188 C0.17794922 17.67818359 -0.16558594 18.34269531 -0.51953125 19.02734375 C-0.86193848 19.68976074 -1.2043457 20.35217773 -1.55712891 21.03466797 C-2.2891579 22.42475321 -3.04267158 23.80367408 -3.81396484 25.17236328 C-4.18859863 25.85927246 -4.56323242 26.54618164 -4.94921875 27.25390625 C-5.29428467 27.86564697 -5.63935059 28.4773877 -5.99487305 29.10766602 C-7.36524112 33.35893963 -5.24710028 37.21606346 -3.41015625 41.0390625 C-2.97123047 41.956875 -2.53230469 42.8746875 -2.08007812 43.8203125 C-1.62052734 44.76648438 -1.16097656 45.71265625 -0.6875 46.6875 C-0.23181641 47.64140625 0.22386719 48.5953125 0.69335938 49.578125 C2.4470003 53.22405489 4.12757935 56.69136903 6.375 60.0625 C6.375 61.7125 6.375 63.3625 6.375 65.0625 C1.755 65.0625 -2.865 65.0625 -7.625 65.0625 C-10.29166667 59.72916667 -12.95833333 54.39583333 -15.625 49.0625 C-15.97433594 50.06152344 -16.32367188 51.06054688 -16.68359375 52.08984375 C-17.14307919 53.39328205 -17.60272279 54.6966646 -18.0625 56 C-18.29259766 56.65935547 -18.52269531 57.31871094 -18.75976562 57.99804688 C-20.51171875 62.94921875 -20.51171875 62.94921875 -21.625 64.0625 C-23.64464199 64.13494053 -25.66667124 64.14627188 -27.6875 64.125 C-28.79222656 64.11597656 -29.89695312 64.10695313 -31.03515625 64.09765625 C-31.88980469 64.08605469 -32.74445313 64.07445312 -33.625 64.0625 C-34.88098537 59.78187701 -34.34815899 57.58272654 -32.5 53.5703125 C-31.81164062 52.01763672 -31.81164062 52.01763672 -31.109375 50.43359375 C-30.12274541 48.27599062 -29.13317794 46.11972841 -28.140625 43.96484375 C-25.12569009 37.14736453 -23.72145483 33.06931302 -26.4609375 25.86376953 C-27.46391012 23.40397918 -28.53127751 20.98322146 -29.625 18.5625 C-32.11712298 13.04671732 -34.2403621 8.15260001 -34.625 2.0625 C-33.625 1.0625 -33.625 1.0625 -30.90234375 0.96484375 C-29.24912109 0.98224609 -29.24912109 0.98224609 -27.5625 1 C-25.90541016 1.01353516 -25.90541016 1.01353516 -24.21484375 1.02734375 C-23.36019531 1.03894531 -22.50554687 1.05054688 -21.625 1.0625 C-18.99134013 5.9846313 -16.98024176 10.64153298 -15.625 16.0625 C-14.83076139 14.50130578 -14.03972877 12.93848036 -13.25 11.375 C-12.80914062 10.50488281 -12.36828125 9.63476562 -11.9140625 8.73828125 C-10.58491263 6.0818198 -10.58491263 6.0818198 -9.5859375 3.29296875 C-7.71439832 -1.05113236 -4.23918733 -0.04156066 0 0 Z " fill="#BD0202" transform="translate(472.625,154.9375)"/>
<path d="M0 0 C1.12019531 -0.00128906 2.24039062 -0.00257813 3.39453125 -0.00390625 C4.57402344 -0.00003906 5.75351562 0.00382813 6.96875 0.0078125 C8.73798828 0.00201172 8.73798828 0.00201172 10.54296875 -0.00390625 C12.22326172 -0.00197266 12.22326172 -0.00197266 13.9375 0 C14.97326172 0.00112793 16.00902344 0.00225586 17.07617188 0.00341797 C19.46875 0.1328125 19.46875 0.1328125 20.46875 1.1328125 C20.54080511 2.81890216 20.55261068 4.50781909 20.53125 6.1953125 C20.52222656 7.11441406 20.51320313 8.03351563 20.50390625 8.98046875 C20.49230469 9.69074219 20.48070312 10.40101563 20.46875 11.1328125 C17.46561252 12.63438124 14.67807478 12.22562454 11.34375 12.1953125 C10.06242187 12.18628906 8.78109375 12.17726562 7.4609375 12.16796875 C6.47351563 12.15636719 5.48609375 12.14476562 4.46875 12.1328125 C4.46875 16.0928125 4.46875 20.0528125 4.46875 24.1328125 C8.09875 24.1328125 11.72875 24.1328125 15.46875 24.1328125 C15.46875 27.7628125 15.46875 31.3928125 15.46875 35.1328125 C11.83875 35.1328125 8.20875 35.1328125 4.46875 35.1328125 C4.46875 39.0928125 4.46875 43.0528125 4.46875 47.1328125 C6.07556641 47.11541016 6.07556641 47.11541016 7.71484375 47.09765625 C9.11197743 47.08827951 10.50911299 47.07917919 11.90625 47.0703125 C12.61330078 47.06193359 13.32035156 47.05355469 14.04882812 47.04492188 C15.85568559 47.03627662 17.66262603 47.08061239 19.46875 47.1328125 C20.46875 48.1328125 20.46875 48.1328125 20.6015625 50.3828125 C20.59898437 51.2903125 20.59640625 52.1978125 20.59375 53.1328125 C20.59761719 54.4940625 20.59761719 54.4940625 20.6015625 55.8828125 C20.46875 58.1328125 20.46875 58.1328125 19.46875 59.1328125 C17.62715977 59.23240871 15.78178033 59.26361661 13.9375 59.265625 C12.81730469 59.26691406 11.69710938 59.26820313 10.54296875 59.26953125 C9.36347656 59.26566406 8.18398438 59.26179688 6.96875 59.2578125 C5.19951172 59.26361328 5.19951172 59.26361328 3.39453125 59.26953125 C1.71423828 59.26759766 1.71423828 59.26759766 0 59.265625 C-1.03576172 59.26449707 -2.07152344 59.26336914 -3.13867188 59.26220703 C-5.53125 59.1328125 -5.53125 59.1328125 -6.53125 58.1328125 C-6.63018778 56.35835241 -6.65924092 54.57994999 -6.66064453 52.80273438 C-6.66379669 51.66485474 -6.66694885 50.5269751 -6.67019653 49.35461426 C-6.6681723 48.11610718 -6.66614807 46.8776001 -6.6640625 45.6015625 C-6.66501923 44.34017456 -6.66597595 43.07878662 -6.66696167 41.7791748 C-6.66764375 39.10584112 -6.66628529 36.43259813 -6.66162109 33.75927734 C-6.65592381 30.32574559 -6.65920301 26.892292 -6.66519356 23.45876312 C-6.66966762 20.19386007 -6.66653883 16.92896657 -6.6640625 13.6640625 C-6.66608673 12.42555542 -6.66811096 11.18704834 -6.67019653 9.91101074 C-6.66704437 8.7731311 -6.66389221 7.63525146 -6.66064453 6.46289062 C-6.65984894 5.45552856 -6.65905334 4.4481665 -6.65823364 3.41027832 C-6.41251015 -0.99679989 -3.82408623 0.00416438 0 0 Z " fill="#C20405" transform="translate(336.53125,157.8671875)"/>
<path d="M0 0 C0.08090971 1.62418745 0.13914995 3.24951745 0.1875 4.875 C0.23970703 6.23238281 0.23970703 6.23238281 0.29296875 7.6171875 C0.19628906 8.40351563 0.09960938 9.18984375 0 10 C-3.63195496 12.42130331 -5.38349348 12.21022785 -9.6875 12.125 C-10.86699219 12.10695312 -12.04648437 12.08890625 -13.26171875 12.0703125 C-14.16535156 12.04710937 -15.06898438 12.02390625 -16 12 C-15.814375 13.051875 -15.62875 14.10375 -15.4375 15.1875 C-15 19 -15 19 -16 24 C-12.37 24 -8.74 24 -5 24 C-5 27.63 -5 31.26 -5 35 C-9.95 35.495 -9.95 35.495 -15 36 C-15 43.26 -15 50.52 -15 58 C-20.00599616 60.50299808 -21.65115915 60.05223099 -27 59 C-28.26753268 56.46493463 -28.12700768 54.70104786 -28.12939453 51.86352539 C-28.13254669 50.79223892 -28.13569885 49.72095245 -28.13894653 48.61720276 C-28.1369223 47.45575241 -28.13489807 46.29430206 -28.1328125 45.09765625 C-28.13376923 43.90901474 -28.13472595 42.72037323 -28.13571167 41.49571228 C-28.1363932 38.97801663 -28.13454079 36.46031924 -28.13037109 33.94262695 C-28.12502721 30.08215392 -28.1303146 26.22179749 -28.13671875 22.36132812 C-28.13605787 19.91927058 -28.13477651 17.4772131 -28.1328125 15.03515625 C-28.13483673 13.87573013 -28.13686096 12.71630402 -28.13894653 11.52174377 C-28.13579437 10.44730515 -28.13264221 9.37286652 -28.12939453 8.26586914 C-28.12859894 7.31925919 -28.12780334 6.37264923 -28.12698364 5.39735413 C-28 3 -28 3 -27 0 C-3.79422836 -1.89711418 -3.79422836 -1.89711418 0 0 Z " fill="#C30F0F" transform="translate(387,158)"/>
<path d="M0 0 C0 15.84 0 31.68 0 48 C4.29 48 8.58 48 13 48 C13.66 48.33 14.32 48.66 15 49 C15.96972498 53.58415445 15.93625685 56.31871573 15 61 C6.09 61 -2.82 61 -12 61 C-13.32637487 58.34725027 -13.07956818 56.4178334 -13.02172852 53.44873047 C-13.00163223 52.28767792 -12.98153595 51.12662537 -12.96083069 49.9303894 C-12.93379562 48.67203278 -12.90676056 47.41367615 -12.87890625 46.1171875 C-12.85529526 44.83264679 -12.83168427 43.54810608 -12.80735779 42.22463989 C-12.74450505 38.80835149 -12.67544189 35.39221559 -12.60510254 31.97607422 C-12.53442976 28.49063059 -12.46960649 25.00507877 -12.40429688 21.51953125 C-12.27526927 14.6795699 -12.13968312 7.83975181 -12 1 C-10 0 -10 0 0 0 Z " fill="#B80606" transform="translate(402,157)"/>
<path d="M0 0 C1.81242052 -0.02687279 3.62495233 -0.04633715 5.4375 -0.0625 C6.44683594 -0.07410156 7.45617187 -0.08570313 8.49609375 -0.09765625 C11 0 11 0 12 1 C12.09905152 2.83572631 12.12799207 4.67527575 12.12939453 6.51367188 C12.13254669 7.69159302 12.13569885 8.86951416 12.13894653 10.08312988 C12.1369223 11.36538452 12.13489807 12.64763916 12.1328125 13.96875 C12.13376923 15.27453003 12.13472595 16.58031006 12.13571167 17.92565918 C12.13718833 20.69312722 12.13503511 23.46056304 12.13037109 26.22802734 C12.12467381 29.78262649 12.12795298 33.33715014 12.13394356 36.89174652 C12.13841747 40.27158714 12.13528886 43.65140723 12.1328125 47.03125 C12.13483673 48.31350464 12.13686096 49.59575928 12.13894653 50.91687012 C12.13579437 52.09479126 12.13264221 53.2727124 12.12939453 54.48632812 C12.12859894 55.52921997 12.12780334 56.57211182 12.12698364 57.64660645 C12 60 12 60 11 61 C9.14712498 61.07226502 7.29166122 61.0838122 5.4375 61.0625 C4.42558594 61.05347656 3.41367187 61.04445312 2.37109375 61.03515625 C1.19740234 61.01775391 1.19740234 61.01775391 0 61 C-1.30248086 58.39503827 -1.12707873 56.48923447 -1.12939453 53.57226562 C-1.13254669 52.43768921 -1.13569885 51.30311279 -1.13894653 50.13415527 C-1.1369223 48.90394653 -1.13489807 47.67373779 -1.1328125 46.40625 C-1.13376923 45.14864868 -1.13472595 43.89104736 -1.13571167 42.59533691 C-1.13639322 39.93217553 -1.13503992 37.26910542 -1.13037109 34.60595703 C-1.1246739 31.18936749 -1.12795387 27.7728565 -1.13394356 24.35626984 C-1.13842226 21.10209372 -1.13528813 17.84792714 -1.1328125 14.59375 C-1.13483673 13.36354126 -1.13686096 12.13333252 -1.13894653 10.86584473 C-1.13579437 9.73126831 -1.13264221 8.59669189 -1.12939453 7.42773438 C-1.12859894 6.42560913 -1.12780334 5.42348389 -1.12698364 4.39099121 C-1 2 -1 2 0 0 Z " fill="#C00203" transform="translate(422,157)"/>
<path d="M0 0 C1.051875 -0.02126953 1.051875 -0.02126953 2.125 -0.04296875 C4 0.1875 4 0.1875 6 2.1875 C6.25396729 4.57849121 6.25396729 4.57849121 6.25878906 7.61523438 C6.26509338 8.74981079 6.27139771 9.88438721 6.27789307 11.05334473 C6.2738446 12.28355347 6.26979614 13.51376221 6.265625 14.78125 C6.26753845 16.03885132 6.2694519 17.29645264 6.27142334 18.59216309 C6.27278649 21.25542875 6.27008006 23.9183293 6.26074219 26.58154297 C6.24934752 29.99821394 6.25590748 33.41457072 6.26788712 36.83123016 C6.27684454 40.08541479 6.27057628 43.33956127 6.265625 46.59375 C6.26967346 47.82395874 6.27372192 49.05416748 6.27789307 50.32165527 C6.27158875 51.45623169 6.26528442 52.59080811 6.25878906 53.75976562 C6.25640228 55.26295349 6.25640228 55.26295349 6.25396729 56.79650879 C6 59.1875 6 59.1875 4 61.1875 C0.7 61.1875 -2.6 61.1875 -6 61.1875 C-6 41.3875 -6 21.5875 -6 1.1875 C-3.77109005 0.07304502 -2.46944894 0.02269714 0 0 Z " fill="#CA0104" transform="translate(276,156.8125)"/>
<path d="M0 0 C0.928125 0.103125 1.85625 0.20625 2.8125 0.3125 C2.8125 0.9725 2.8125 1.6325 2.8125 2.3125 C3.4725 2.3125 4.1325 2.3125 4.8125 2.3125 C4.83779271 9.39663941 4.85534261 16.48076723 4.86743164 23.56494141 C4.87246974 25.97640417 4.87930034 28.38786386 4.88793945 30.79931641 C4.90002787 34.25944779 4.90573344 37.7195389 4.91015625 41.1796875 C4.91531754 42.26305389 4.92047882 43.34642029 4.92579651 44.46261597 C4.92590981 45.96394577 4.92590981 45.96394577 4.92602539 47.49560547 C4.928246 48.37940887 4.93046661 49.26321228 4.93275452 50.17379761 C4.8125 52.3125 4.8125 52.3125 3.8125 54.3125 C1.5025 54.3125 -0.8075 54.3125 -3.1875 54.3125 C-3.21255615 53.72758789 -3.2376123 53.14267578 -3.26342773 52.54003906 C-3.37972962 49.88065529 -3.50230067 47.22159597 -3.625 44.5625 C-3.66431641 43.64210937 -3.70363281 42.72171875 -3.74414062 41.7734375 C-3.78603516 40.88398438 -3.82792969 39.99453125 -3.87109375 39.078125 C-3.90775146 38.26118164 -3.94440918 37.44423828 -3.98217773 36.60253906 C-4.17884275 34.4090577 -4.59050594 32.42853587 -5.1875 30.3125 C-6.38321126 32.31273285 -6.38321126 32.31273285 -6.125 34.8125 C-6.1875 37.3125 -6.1875 37.3125 -8.1875 39.3125 C-8.80100042 41.5019648 -9.33309812 43.71481857 -9.8125 45.9375 C-10.07289063 47.12601563 -10.33328125 48.31453125 -10.6015625 49.5390625 C-10.79492188 50.45429688 -10.98828125 51.36953125 -11.1875 52.3125 C-13.1675 52.3125 -15.1475 52.3125 -17.1875 52.3125 C-17.69654657 50.43993583 -18.19432455 48.56430659 -18.6875 46.6875 C-18.9659375 45.64335937 -19.244375 44.59921875 -19.53125 43.5234375 C-20.18648794 40.31745185 -20.44906213 37.57268512 -20.1875 34.3125 C-19.5275 33.6525 -18.8675 32.9925 -18.1875 32.3125 C-15.1875 36.0625 -15.1875 36.0625 -15.1875 38.3125 C-14.5275 38.3125 -13.8675 38.3125 -13.1875 38.3125 C-13.07792969 37.74660156 -12.96835937 37.18070313 -12.85546875 36.59765625 C-12.69691406 35.86417969 -12.53835938 35.13070312 -12.375 34.375 C-12.22417969 33.64410156 -12.07335937 32.91320312 -11.91796875 32.16015625 C-11.67691406 31.55042969 -11.43585938 30.94070312 -11.1875 30.3125 C-10.1975 29.9825 -9.2075 29.6525 -8.1875 29.3125 C-3.99059017 24.93251499 -3.99059017 24.93251499 -2.1875 19.3125 C-2.8475 18.9825 -3.5075 18.6525 -4.1875 18.3125 C-3.8575 17.3225 -3.5275 16.3325 -3.1875 15.3125 C-4.1775 15.3125 -5.1675 15.3125 -6.1875 15.3125 C-6.64512712 6.58368644 -6.64512712 6.58368644 -5.0625 2.1875 C-3.1875 0.3125 -3.1875 0.3125 0 0 Z " fill="#B70907" transform="translate(320.1875,160.6875)"/>
<path d="M0 0 C2.45862401 -0.05383848 4.9160755 -0.09359038 7.375 -0.125 C8.42300781 -0.15013672 8.42300781 -0.15013672 9.4921875 -0.17578125 C11.32897486 -0.19344267 13.16601963 -0.10303261 15 0 C17.3145261 2.3145261 17.381753 3.13239801 17.859375 6.28515625 C18.00286377 7.19297852 18.14635254 8.10080078 18.29418945 9.03613281 C18.44460693 10.03483398 18.59502441 11.03353516 18.75 12.0625 C19.94277658 19.65987831 21.20552842 27.23562219 22.62890625 34.79296875 C22.76801422 35.53575577 22.90712219 36.27854279 23.05044556 37.0438385 C23.60792775 40.01754133 24.16600833 42.9910144 24.73937988 45.96170044 C25.14221326 48.05127354 25.53482914 50.14255152 25.92578125 52.234375 C26.15692627 53.44319336 26.38807129 54.65201172 26.6262207 55.89746094 C26.96599474 58.71774077 27.0057618 60.38088551 26 63 C25 64 25 64 22.3125 64.1328125 C21.219375 64.13023437 20.12625 64.12765625 19 64.125 C17.906875 64.12757813 16.81375 64.13015625 15.6875 64.1328125 C13 64 13 64 12 63 C11.76518307 60.81707226 11.58636677 58.62796826 11.4375 56.4375 C11.31181641 54.64119141 11.31181641 54.64119141 11.18359375 52.80859375 C11.12300781 51.88175781 11.06242187 50.95492187 11 50 C8.36 50.33 5.72 50.66 3 51 C2.83564453 52.13888672 2.83564453 52.13888672 2.66796875 53.30078125 C2.43013672 54.79158203 2.43013672 54.79158203 2.1875 56.3125 C2.03667969 57.29863281 1.88585937 58.28476563 1.73046875 59.30078125 C0.93665408 62.23407503 0.55392938 63.37076919 -2 65 C-4.91796875 65.29296875 -4.91796875 65.29296875 -8.1875 65.1875 C-9.27417969 65.16042969 -10.36085937 65.13335937 -11.48046875 65.10546875 C-12.72763672 65.05326172 -12.72763672 65.05326172 -14 65 C-15.25677333 61.22968 -14.58836875 59.37704532 -13.671875 55.5234375 C-13.44865822 54.56611977 -13.44865822 54.56611977 -13.22093201 53.58946228 C-12.90212059 52.22388585 -12.5799442 50.85909146 -12.25473022 49.49502563 C-11.41325011 45.9605446 -10.59892911 42.41985273 -9.78515625 38.87890625 C-9.62578079 38.18707748 -9.46640533 37.49524872 -9.30220032 36.78245544 C-7.29990006 28.03051747 -5.78521033 19.23286597 -4.453125 10.35546875 C-4.28296875 9.24816406 -4.1128125 8.14085937 -3.9375 7 C-3.73447266 5.576875 -3.73447266 5.576875 -3.52734375 4.125 C-3.35332031 3.42375 -3.17929688 2.7225 -3 2 C-2.34 1.67 -1.68 1.34 -1 1 C-0.60019693 7.69299948 -1.42923107 13.36559807 -3.19921875 19.81640625 C-4.53900511 25.14287397 -5.25466517 30.56344008 -6 36 C-6.66 36 -7.32 36 -8 36 C-7.98839844 36.63808594 -7.97679687 37.27617187 -7.96484375 37.93359375 C-7.95582031 38.75988281 -7.94679687 39.58617187 -7.9375 40.4375 C-7.92009766 41.67306641 -7.92009766 41.67306641 -7.90234375 42.93359375 C-8 45 -8 45 -9 46 C-9.23678716 48.69235776 -9.42198025 51.36498156 -9.5625 54.0625 C-9.60568359 54.82111328 -9.64886719 55.57972656 -9.69335938 56.36132812 C-9.79973633 58.24065438 -9.90039934 60.12030244 -10 62 C-7.69 62 -5.38 62 -3 62 C-2.6648342 59.87528825 -2.33192171 57.75022095 -2 55.625 C-1.814375 54.44164062 -1.62875 53.25828125 -1.4375 52.0390625 C-0.95250335 49.18179992 -0.95250335 49.18179992 -1 47 C0.62414378 46.80522261 2.24936423 46.61940542 3.875 46.4375 C5.23238281 46.28087891 5.23238281 46.28087891 6.6171875 46.12109375 C9 46 9 46 11 47 C11 47.66 11 48.32 11 49 C11.66 49 12.32 49 13 49 C14.32 52.63 15.64 56.26 17 60 C18.65 60 20.3 60 22 60 C21.69515438 58.2725415 21.39030651 56.54508339 21.08544922 54.81762695 C20.81750853 53.29924156 20.5496056 51.78084951 20.28173828 50.26245117 C19.57802255 46.27377069 18.87371095 42.28519747 18.16796875 38.296875 C18.03495361 37.54462646 17.90193848 36.79237793 17.76489258 36.01733398 C17.51105858 34.58190829 17.25700113 33.14652209 17.00268555 31.71118164 C15.85090929 25.19503325 14.7958442 18.68656458 13.9375 12.125 C13.84662109 11.43664062 13.75574219 10.74828125 13.66210938 10.0390625 C13.44049969 8.35949437 13.22012172 6.67976379 13 5 C10.525 4.505 10.525 4.505 8 4 C8 3.34 8 2.68 8 2 C5.36 2 2.72 2 0 2 C0 1.34 0 0.68 0 0 Z " fill="#B11718" transform="translate(201,155)"/>
<path d="M0 0 C3.3 0 6.6 0 10 0 C10 1.32 10 2.64 10 4 C10.99 4.33 11.98 4.66 13 5 C12.01 5.495 12.01 5.495 11 6 C11.02320313 7.13179687 11.04640625 8.26359375 11.0703125 9.4296875 C11.08906901 10.91145175 11.10726934 12.39322312 11.125 13.875 C11.14175781 14.62136719 11.15851563 15.36773437 11.17578125 16.13671875 C11.1933959 18.09194461 11.10320189 20.04742021 11 22 C10.34 22.66 9.68 23.32 9 24 C9.32326553 27.59679066 9.32326553 27.59679066 10 31 C9.34 30.67 8.68 30.34 8 30 C8 28.68 8 27.36 8 26 C7.34 26 6.68 26 6 26 C6 35.24 6 44.48 6 54 C3.36 54.33 0.72 54.66 -2 55 C-3.20673564 52.58652871 -3.09856074 51.13877658 -3.0534668 48.44604492 C-3.0398259 47.50133835 -3.026185 46.55663177 -3.01213074 45.58329773 C-2.99136978 44.55936417 -2.97060883 43.5354306 -2.94921875 42.48046875 C-2.9303511 41.42974686 -2.91148346 40.37902496 -2.89204407 39.29646301 C-2.8501092 37.06957791 -2.80536664 34.84274419 -2.75805664 32.6159668 C-2.68800792 29.21218049 -2.63357893 25.80837836 -2.58007812 22.40429688 C-2.53741673 20.24216838 -2.4938272 18.08005795 -2.44921875 15.91796875 C-2.43453049 14.90010788 -2.41984222 13.88224701 -2.40470886 12.83354187 C-2.38161148 11.87937881 -2.3585141 10.92521576 -2.3347168 9.94213867 C-2.31837692 9.1065593 -2.30203705 8.27097992 -2.28520203 7.41007996 C-1.96195141 4.678473 -1.11812348 2.50228595 0 0 Z " fill="#C80203" transform="translate(289,161)"/>
<path d="M0 0 C1.12019531 -0.00128906 2.24039062 -0.00257813 3.39453125 -0.00390625 C4.57402344 -0.00003906 5.75351562 0.00382813 6.96875 0.0078125 C8.73798828 0.00201172 8.73798828 0.00201172 10.54296875 -0.00390625 C12.22326172 -0.00197266 12.22326172 -0.00197266 13.9375 0 C14.97326172 0.00112793 16.00902344 0.00225586 17.07617188 0.00341797 C19.46875 0.1328125 19.46875 0.1328125 20.46875 1.1328125 C20.54080511 2.81890216 20.55261068 4.50781909 20.53125 6.1953125 C20.52222656 7.11441406 20.51320313 8.03351563 20.50390625 8.98046875 C20.49230469 9.69074219 20.48070312 10.40101563 20.46875 11.1328125 C17.46561252 12.63438124 14.67807478 12.22562454 11.34375 12.1953125 C10.06242187 12.18628906 8.78109375 12.17726562 7.4609375 12.16796875 C6.47351563 12.15636719 5.48609375 12.14476562 4.46875 12.1328125 C4.46875 16.0928125 4.46875 20.0528125 4.46875 24.1328125 C8.09875 24.1328125 11.72875 24.1328125 15.46875 24.1328125 C15.46875 27.7628125 15.46875 31.3928125 15.46875 35.1328125 C11.83875 35.1328125 8.20875 35.1328125 4.46875 35.1328125 C4.46875 39.0928125 4.46875 43.0528125 4.46875 47.1328125 C6.07556641 47.11541016 6.07556641 47.11541016 7.71484375 47.09765625 C9.11197743 47.08827951 10.50911299 47.07917919 11.90625 47.0703125 C12.61330078 47.06193359 13.32035156 47.05355469 14.04882812 47.04492188 C15.85568559 47.03627662 17.66262603 47.08061239 19.46875 47.1328125 C20.46875 48.1328125 20.46875 48.1328125 20.6015625 50.3828125 C20.59898437 51.2903125 20.59640625 52.1978125 20.59375 53.1328125 C20.59761719 54.4940625 20.59761719 54.4940625 20.6015625 55.8828125 C20.46875 58.1328125 20.46875 58.1328125 19.46875 59.1328125 C17.62715977 59.23240871 15.78178033 59.26361661 13.9375 59.265625 C12.81730469 59.26691406 11.69710938 59.26820313 10.54296875 59.26953125 C9.36347656 59.26566406 8.18398438 59.26179688 6.96875 59.2578125 C5.19951172 59.26361328 5.19951172 59.26361328 3.39453125 59.26953125 C1.71423828 59.26759766 1.71423828 59.26759766 0 59.265625 C-1.03576172 59.26449707 -2.07152344 59.26336914 -3.13867188 59.26220703 C-5.53125 59.1328125 -5.53125 59.1328125 -6.53125 58.1328125 C-6.63018778 56.35835241 -6.65924092 54.57994999 -6.66064453 52.80273438 C-6.66379669 51.66485474 -6.66694885 50.5269751 -6.67019653 49.35461426 C-6.6681723 48.11610718 -6.66614807 46.8776001 -6.6640625 45.6015625 C-6.66501923 44.34017456 -6.66597595 43.07878662 -6.66696167 41.7791748 C-6.66764375 39.10584112 -6.66628529 36.43259813 -6.66162109 33.75927734 C-6.65592381 30.32574559 -6.65920301 26.892292 -6.66519356 23.45876312 C-6.66966762 20.19386007 -6.66653883 16.92896657 -6.6640625 13.6640625 C-6.66608673 12.42555542 -6.66811096 11.18704834 -6.67019653 9.91101074 C-6.66704437 8.7731311 -6.66389221 7.63525146 -6.66064453 6.46289062 C-6.65984894 5.45552856 -6.65905334 4.4481665 -6.65823364 3.41027832 C-6.41251015 -0.99679989 -3.82408623 0.00416438 0 0 Z M17.46875 1.1328125 C17.13875 1.4628125 16.80875 1.7928125 16.46875 2.1328125 C14.83402118 2.21981592 13.19560945 2.23982313 11.55859375 2.23046875 C10.56923828 2.22724609 9.57988281 2.22402344 8.56054688 2.22070312 C7.51962891 2.21232422 6.47871094 2.20394531 5.40625 2.1953125 C4.36146484 2.19080078 3.31667969 2.18628906 2.24023438 2.18164062 C-0.3503166 2.16981163 -2.94075559 2.15332939 -5.53125 2.1328125 C-5.60673128 14.14272319 -5.37272645 26.12842571 -5.03125 38.1328125 C-4.98287297 39.89061951 -4.93469484 41.648432 -4.88671875 43.40625 C-4.77087525 47.64851872 -4.6509886 51.89064492 -4.53125 56.1328125 C2.72875 56.1328125 9.98875 56.1328125 17.46875 56.1328125 C17.46875 53.8228125 17.46875 51.5128125 17.46875 49.1328125 C15.97021484 49.15021484 15.97021484 49.15021484 14.44140625 49.16796875 C13.15105469 49.17699219 11.86070312 49.18601563 10.53125 49.1953125 C9.24347656 49.20691406 7.95570313 49.21851563 6.62890625 49.23046875 C3.46875 49.1328125 3.46875 49.1328125 2.46875 48.1328125 C2.23198751 46.20071364 2.05410786 44.26124026 1.90625 42.3203125 C1.82246094 41.26199219 1.73867188 40.20367187 1.65234375 39.11328125 C1.50923558 36.79005717 1.46875 34.46044006 1.46875 32.1328125 C4.43875 31.8028125 7.40875 31.4728125 10.46875 31.1328125 C10.79875 30.1428125 11.12875 29.1528125 11.46875 28.1328125 C9.15875 27.8028125 6.84875 27.4728125 4.46875 27.1328125 C2.7474439 21.96889421 3.41521448 16.53990014 3.46875 11.1328125 C8.41875 10.8028125 13.36875 10.4728125 18.46875 10.1328125 C18.79875 7.8228125 19.12875 5.5128125 19.46875 3.1328125 C18.80875 2.4728125 18.14875 1.8128125 17.46875 1.1328125 Z " fill="#B74949" transform="translate(336.53125,157.8671875)"/>
<path d="M0 0 C0.99 0 1.98 0 3 0 C3.18175781 0.61488281 3.36351562 1.22976562 3.55078125 1.86328125 C3.80214844 2.67152344 4.05351562 3.47976562 4.3125 4.3125 C4.55613281 5.11300781 4.79976563 5.91351563 5.05078125 6.73828125 C5.85737234 9.05985928 5.85737234 9.05985928 7.60546875 10.60546875 C8.06566406 11.06566406 8.52585937 11.52585938 9 12 C9 12.99 9 13.98 9 15 C9.66 15 10.32 15 11 15 C12.7610915 24.68600328 12.7610915 24.68600328 10.0625 28.625 C9.381875 29.40875 8.70125 30.1925 8 31 C8.33 31.66 8.66 32.32 9 33 C11.02463255 33.65213292 11.02463255 33.65213292 13 34 C13.66 32.68 14.32 31.36 15 30 C15.33 30.66 15.66 31.32 16 32 C16.66 32 17.32 32 18 32 C18.18175781 32.68707031 18.36351562 33.37414062 18.55078125 34.08203125 C18.80214844 34.98308594 19.05351562 35.88414062 19.3125 36.8125 C19.55613281 37.70582031 19.79976563 38.59914062 20.05078125 39.51953125 C20.81787519 42.04008778 20.81787519 42.04008778 22.60546875 43.57421875 C24 45 24 45 24 49 C27.3 49.33 30.6 49.66 34 50 C33.649375 48.9275 33.29875 47.855 32.9375 46.75 C32.05319814 43.21279257 31.97119449 42.25188876 33 39 C33.8466034 40.38782485 34.67675339 41.78569397 35.5 43.1875 C35.9640625 43.96480469 36.428125 44.74210937 36.90625 45.54296875 C38 48 38 48 38 53 C33.38 53 28.76 53 24 53 C21.33333333 47.66666667 18.66666667 42.33333333 16 37 C15.65066406 37.99902344 15.30132812 38.99804688 14.94140625 40.02734375 C14.48192081 41.33078205 14.02227721 42.6341646 13.5625 43.9375 C13.33240234 44.59685547 13.10230469 45.25621094 12.86523438 45.93554688 C11.11328125 50.88671875 11.11328125 50.88671875 10 52 C7.98035801 52.07244053 5.95832876 52.08377188 3.9375 52.0625 C2.28041016 52.04896484 2.28041016 52.04896484 0.58984375 52.03515625 C-0.26480469 52.02355469 -1.11945313 52.01195312 -2 52 C-3.25598537 47.71937701 -2.72315899 45.52022654 -0.875 41.5078125 C-0.18664062 39.95513672 -0.18664062 39.95513672 0.515625 38.37109375 C1.50225459 36.21349062 2.49182206 34.05722841 3.484375 31.90234375 C6.8464759 24.29984031 7.62950228 20.24753918 4.58984375 12.32421875 C3.75475668 10.48623752 2.91965708 8.64826191 2.08398438 6.81054688 C0 2.16321126 0 2.16321126 0 0 Z " fill="#BA0403" transform="translate(441,167)"/>
<path d="M0 0 C0.66 0.33 1.32 0.66 2 1 C5.96384199 12.92166925 7.43391555 25.50710188 8 38 C5.03 38.495 5.03 38.495 2 39 C1.49440092 37.56445975 0.9957251 36.1264798 0.5 34.6875 C0.2215625 33.88699219 -0.056875 33.08648437 -0.34375 32.26171875 C-1 30 -1 30 -1 27 C-1.66 27 -2.32 27 -3 27 C-3 26.34 -3 25.68 -3 25 C-6.34252724 24.92572162 -8.8035914 24.93453047 -12 26 C-12.99 25.67 -13.98 25.34 -15 25 C-14.67 25.99 -14.34 26.98 -14 28 C-14.05078125 30.15625 -14.05078125 30.15625 -14.3125 32.5 C-14.43044922 33.66015625 -14.43044922 33.66015625 -14.55078125 34.84375 C-15 37 -15 37 -17 40 C-20.625 40.1875 -20.625 40.1875 -24 40 C-23.6372216 34.59585279 -22.82873681 29.93354303 -20.75390625 24.921875 C-20.00206707 23.00526942 -19.49106984 21.12229245 -19 19.125 C-18 16 -18 16 -15 14 C-14.67 15.32 -14.34 16.64 -14 18 C-13.484375 18.12375 -12.96875 18.2475 -12.4375 18.375 C-9.27456515 19.18600894 -6.13962119 20.10296537 -3 21 C-3 15.06 -3 9.12 -3 3 C-2.01 2.67 -1.02 2.34 0 2 C0 1.34 0 0.68 0 0 Z " fill="#C80203" transform="translate(215,177)"/>
<path d="M0 0 C1.18851562 0.00902344 2.37703125 0.01804688 3.6015625 0.02734375 C4.51679688 0.03894531 5.43203125 0.05054688 6.375 0.0625 C5.87564935 5.79385299 4.24742421 9.94688492 1.5625 15 C1.21896484 15.66451172 0.87542969 16.32902344 0.52148438 17.01367188 C-0.90224013 19.76763053 -2.33774055 22.51533335 -3.77880859 25.26025391 C-4.14441895 25.96972168 -4.5100293 26.67918945 -4.88671875 27.41015625 C-5.22018311 28.05090088 -5.55364746 28.69164551 -5.8972168 29.35180664 C-7.02974555 32.01387607 -6.690664 33.39833999 -5.625 36.0625 C-4.53367753 38.093913 -3.44452645 40.11313259 -2.26953125 42.09765625 C-1.625 44.0625 -1.625 44.0625 -2.51171875 46.30859375 C-3.06279297 47.17677734 -3.06279297 47.17677734 -3.625 48.0625 C-3.625 46.7425 -3.625 45.4225 -3.625 44.0625 C-4.285 44.0625 -4.945 44.0625 -5.625 44.0625 C-6.099375 42.928125 -6.57375 41.79375 -7.0625 40.625 C-8.26122083 37.30509834 -8.26122083 37.30509834 -9.625 36.0625 C-9.828125 34.1015625 -9.828125 34.1015625 -9.875 31.6875 C-9.90078125 30.89601562 -9.9265625 30.10453125 -9.953125 29.2890625 C-9.54767102 26.53776764 -8.62291388 25.91019479 -6.625 24.0625 C-5.88113932 21.75261685 -5.20309297 19.41934056 -4.625 17.0625 C-7.55943402 17.32906572 -7.55943402 17.32906572 -10.625 18.0625 C-11.285 19.0525 -11.945 20.0425 -12.625 21.0625 C-13.945 20.4025 -15.265 19.7425 -16.625 19.0625 C-16.625 18.4025 -16.625 17.7425 -16.625 17.0625 C-17.285 17.0625 -17.945 17.0625 -18.625 17.0625 C-18.810625 15.9178125 -18.810625 15.9178125 -19 14.75 C-19.50602792 11.85982864 -19.50602792 11.85982864 -21.625 9.0625 C-21.625 7.7425 -21.625 6.4225 -21.625 5.0625 C-22.285 5.0625 -22.945 5.0625 -23.625 5.0625 C-23.625 4.4025 -23.625 3.7425 -23.625 3.0625 C-26.595 3.0625 -29.565 3.0625 -32.625 3.0625 C-32.295 3.7225 -31.965 4.3825 -31.625 5.0625 C-31.58477609 7.3954866 -31.58179753 9.72956666 -31.625 12.0625 C-33.93194043 8.60208935 -34.24556512 6.16039669 -34.625 2.0625 C-33.625 1.0625 -33.625 1.0625 -30.90234375 0.96484375 C-29.24912109 0.98224609 -29.24912109 0.98224609 -27.5625 1 C-25.90541016 1.01353516 -25.90541016 1.01353516 -24.21484375 1.02734375 C-23.36019531 1.03894531 -22.50554687 1.05054688 -21.625 1.0625 C-18.99134013 5.9846313 -16.98024176 10.64153298 -15.625 16.0625 C-14.83076139 14.50130578 -14.03972877 12.93848036 -13.25 11.375 C-12.80914062 10.50488281 -12.36828125 9.63476562 -11.9140625 8.73828125 C-10.58491263 6.0818198 -10.58491263 6.0818198 -9.5859375 3.29296875 C-7.71439832 -1.05113236 -4.23918733 -0.04156066 0 0 Z " fill="#BA0304" transform="translate(472.625,154.9375)"/>
<path d="M0 0 C1.65 0 3.3 0 5 0 C6.1989172 5.6336663 6.1273081 11.13879739 6.09765625 16.8671875 C6.0962413 17.90191193 6.09482635 18.93663635 6.09336853 20.00271606 C6.08779039 23.29350732 6.07524188 26.58422946 6.0625 29.875 C6.05748218 32.11197818 6.05291976 34.34895743 6.04882812 36.5859375 C6.03782812 42.05731508 6.02111177 47.5286526 6 53 C2.535 53.495 2.535 53.495 -1 54 C-1.33 52.35 -1.66 50.7 -2 49 C-2.66 49 -3.32 49 -4 49 C-5.46670113 43.77487721 -6.22577402 39.4185766 -6 34 C-5.01 34.33 -4.02 34.66 -3 35 C-3 34.34 -3 33.68 -3 33 C-2.01 33 -1.02 33 0 33 C0 22.11 0 11.22 0 0 Z " fill="#C90204" transform="translate(258,160)"/>
<path d="M0 0 C1.00289062 0.10183594 2.00578125 0.20367187 3.0390625 0.30859375 C3.80992187 0.39238281 4.58078125 0.47617188 5.375 0.5625 C9.02613305 9.0478148 11.68214936 17.73593403 14.375 26.5625 C14.705 17.9825 15.035 9.4025 15.375 0.5625 C19.005 0.5625 22.635 0.5625 26.375 0.5625 C27.375 1.5625 27.375 1.5625 27.49525452 3.92262268 C27.49303391 4.96853073 27.49081329 6.01443878 27.48852539 7.09204102 C27.48844986 8.27318985 27.48837433 9.45433868 27.48829651 10.67127991 C27.48313522 11.9566716 27.47797394 13.24206329 27.47265625 14.56640625 C27.4712413 15.87455795 27.46982635 17.18270966 27.46836853 18.53050232 C27.4645441 22.01412859 27.45471446 25.49771339 27.44366455 28.98132324 C27.43344882 32.53376708 27.42887056 36.08621759 27.42382812 39.63867188 C27.41309212 46.61329832 27.3960166 53.58789717 27.375 60.5625 C27.045 60.5625 26.715 60.5625 26.375 60.5625 C26.045 49.6725 25.715 38.7825 25.375 27.5625 C25.045 27.5625 24.715 27.5625 24.375 27.5625 C23.88 15.6825 23.88 15.6825 23.375 3.5625 C21.725 3.5625 20.075 3.5625 18.375 3.5625 C18.42829468 4.49932617 18.42829468 4.49932617 18.48266602 5.45507812 C18.64165959 8.32386371 18.78965023 11.19311936 18.9375 14.0625 C18.99357422 15.04476562 19.04964844 16.02703125 19.10742188 17.0390625 C19.39026869 22.69599873 19.4429275 27.98625578 18.375 33.5625 C17.715 34.2225 17.055 34.8825 16.375 35.5625 C15.385 35.5625 14.395 35.5625 13.375 35.5625 C11.02688776 30.76418368 10.00544817 26.92151479 9.78125 21.578125 C9.56461885 19.47141746 9.56461885 19.47141746 7.91796875 18.24609375 C5.50897504 15.61754619 5.60212293 12.85145382 5.1875 9.375 C5.02894531 8.10269531 4.87039062 6.83039063 4.70703125 5.51953125 C4.59746094 4.54371094 4.48789063 3.56789062 4.375 2.5625 C2.7495692 2.70345064 1.12465949 2.85042087 -0.5 3 C-1.40492188 3.08121094 -2.30984375 3.16242188 -3.2421875 3.24609375 C-5.63610861 3.43239285 -5.63610861 3.43239285 -7.625 4.5625 C-7.625 3.2425 -7.625 1.9225 -7.625 0.5625 C-4.89657939 -0.80171031 -3.01546682 -0.31557211 0 0 Z " fill="#B40808" transform="translate(239.625,156.4375)"/>
<path d="M0 0 C1.051875 -0.02126953 1.051875 -0.02126953 2.125 -0.04296875 C4 0.1875 4 0.1875 6 2.1875 C6.25396729 4.57849121 6.25396729 4.57849121 6.25878906 7.61523438 C6.26509338 8.74981079 6.27139771 9.88438721 6.27789307 11.05334473 C6.2738446 12.28355347 6.26979614 13.51376221 6.265625 14.78125 C6.26753845 16.03885132 6.2694519 17.29645264 6.27142334 18.59216309 C6.27278649 21.25542875 6.27008006 23.9183293 6.26074219 26.58154297 C6.24934752 29.99821394 6.25590748 33.41457072 6.26788712 36.83123016 C6.27684454 40.08541479 6.27057628 43.33956127 6.265625 46.59375 C6.26967346 47.82395874 6.27372192 49.05416748 6.27789307 50.32165527 C6.27158875 51.45623169 6.26528442 52.59080811 6.25878906 53.75976562 C6.25640228 55.26295349 6.25640228 55.26295349 6.25396729 56.79650879 C6 59.1875 6 59.1875 4 61.1875 C1.875 60.8125 1.875 60.8125 0 60.1875 C1.485 59.6925 1.485 59.6925 3 59.1875 C3 40.7075 3 22.2275 3 3.1875 C1.02 3.5175 -0.96 3.8475 -3 4.1875 C-3.01030746 4.85957489 -3.02061493 5.53164978 -3.03123474 6.22409058 C-3.13915023 13.19913764 -3.2537601 20.17405159 -3.37231445 27.14892578 C-3.41571137 29.75436629 -3.45738286 32.35983611 -3.49731445 34.96533203 C-3.55490192 38.70354056 -3.6186294 42.44160082 -3.68359375 46.1796875 C-3.70030624 47.35054901 -3.71701874 48.52141052 -3.73423767 49.72775269 C-3.75418289 50.80872223 -3.77412811 51.88969177 -3.79467773 53.00341797 C-3.81022202 53.95828094 -3.8257663 54.91314392 -3.84178162 55.89694214 C-4 58.1875 -4 58.1875 -5 60.1875 C-4.01 60.5175 -3.02 60.8475 -2 61.1875 C-3.32 61.1875 -4.64 61.1875 -6 61.1875 C-6 41.3875 -6 21.5875 -6 1.1875 C-3.77109005 0.07304502 -2.46944894 0.02269714 0 0 Z " fill="#B74746" transform="translate(276,156.8125)"/>
<path d="M0 0 C1.81242052 -0.02687279 3.62495233 -0.04633715 5.4375 -0.0625 C6.44683594 -0.07410156 7.45617187 -0.08570313 8.49609375 -0.09765625 C11 0 11 0 12 1 C12.09905152 2.83572631 12.12799207 4.67527575 12.12939453 6.51367188 C12.13254669 7.69159302 12.13569885 8.86951416 12.13894653 10.08312988 C12.1369223 11.36538452 12.13489807 12.64763916 12.1328125 13.96875 C12.13376923 15.27453003 12.13472595 16.58031006 12.13571167 17.92565918 C12.13718833 20.69312722 12.13503511 23.46056304 12.13037109 26.22802734 C12.12467381 29.78262649 12.12795298 33.33715014 12.13394356 36.89174652 C12.13841747 40.27158714 12.13528886 43.65140723 12.1328125 47.03125 C12.13483673 48.31350464 12.13686096 49.59575928 12.13894653 50.91687012 C12.13579437 52.09479126 12.13264221 53.2727124 12.12939453 54.48632812 C12.12859894 55.52921997 12.12780334 56.57211182 12.12698364 57.64660645 C12 60 12 60 11 61 C9.14712498 61.07226502 7.29166122 61.0838122 5.4375 61.0625 C4.42558594 61.05347656 3.41367187 61.04445312 2.37109375 61.03515625 C1.19740234 61.01775391 1.19740234 61.01775391 0 61 C0 60.34 0 59.68 0 59 C2.97 59 5.94 59 9 59 C9.02508834 53.59635744 9.04303972 48.19275024 9.05493164 42.7890625 C9.0598995 40.95832731 9.06667607 39.12759595 9.07543945 37.296875 C9.12893799 25.81671767 8.8977261 14.44879103 8 3 C6.68 3.33 5.36 3.66 4 4 C3.67 5.65 3.34 7.3 3 9 C2.67 9 2.34 9 2 9 C1.67 25.17 1.34 41.34 1 58 C0.34 58 -0.32 58 -1 58 C-1.02314782 50.73305527 -1.04092756 43.46611846 -1.05181217 36.19914436 C-1.05703565 32.82496974 -1.06412361 29.45082029 -1.07543945 26.07666016 C-1.08752436 22.19953741 -1.09323263 18.3224506 -1.09765625 14.4453125 C-1.10281754 13.23070343 -1.10797882 12.01609436 -1.11329651 10.76467896 C-1.11340981 9.08316238 -1.11340981 9.08316238 -1.11352539 7.36767578 C-1.115746 6.37728302 -1.11796661 5.38689026 -1.12025452 4.3664856 C-1 2 -1 2 0 0 Z " fill="#AB3636" transform="translate(422,157)"/>
<path d="M0 0 C2.97 0 5.94 0 9 0 C9.02314782 7.26694473 9.04092756 14.53388154 9.05181217 21.80085564 C9.05703565 25.17503026 9.06412361 28.54917971 9.07543945 31.92333984 C9.08752436 35.80046259 9.09323263 39.6775494 9.09765625 43.5546875 C9.10281754 44.76929657 9.10797882 45.98390564 9.11329651 47.23532104 C9.11340981 48.91683762 9.11340981 48.91683762 9.11352539 50.63232422 C9.115746 51.62271698 9.11796661 52.61310974 9.12025452 53.6335144 C9 56 9 56 8 58 C4.7 58 1.4 58 -2 58 C-2.33 53.05 -2.66 48.1 -3 43 C-3.45375 45.10375 -3.9075 47.2075 -4.375 49.375 C-5.75 55.75 -5.75 55.75 -8 58 C-10.9375 58.75 -10.9375 58.75 -14 59 C-17 57 -17 57 -17.765625 54.5390625 C-17.92546875 53.57742187 -18.0853125 52.61578125 -18.25 51.625 C-18.42015625 50.66851562 -18.5903125 49.71203125 -18.765625 48.7265625 C-18.98765822 46.14357598 -18.80865677 44.43752256 -18 42 C-17.49440092 43.43554025 -16.9957251 44.8735202 -16.5 46.3125 C-16.08234375 47.51326172 -16.08234375 47.51326172 -15.65625 48.73828125 C-15 51 -15 51 -15 54 C-13.02 54 -11.04 54 -9 54 C-8.87882812 53.08476562 -8.75765625 52.16953125 -8.6328125 51.2265625 C-8.46523438 50.03804687 -8.29765625 48.84953125 -8.125 47.625 C-7.96257812 46.44164062 -7.80015625 45.25828125 -7.6328125 44.0390625 C-7 41 -7 41 -5 39 C-5.020625 38.01 -5.04125 37.02 -5.0625 36 C-5.041875 35.01 -5.02125 34.02 -5 33 C-4.01 32.34 -3.02 31.68 -2 31 C-1.24636948 34.35091771 -0.88020063 37.43109812 -0.90234375 40.86328125 C-0.90556641 41.74951172 -0.90878906 42.63574219 -0.91210938 43.54882812 C-0.92048828 44.46083984 -0.92886719 45.37285156 -0.9375 46.3125 C-0.94201172 47.24384766 -0.94652344 48.17519531 -0.95117188 49.13476562 C-0.96290766 51.42324373 -0.97932637 53.71158808 -1 56 C1.31 56 3.62 56 6 56 C6.33 37.85 6.66 19.7 7 1 C4.69 1 2.38 1 0 1 C0 0.67 0 0.34 0 0 Z " fill="#A73132" transform="translate(318,159)"/>
<path d="M0 0 C1.98 0 3.96 0 6 0 C6 17.16 6 34.32 6 52 C4.68 51.67 3.36 51.34 2 51 C2 43.74 2 36.48 2 29 C1.01 28.67 0.02 28.34 -1 28 C-0.41196203 24.97580475 0.22678118 21.98241547 1 19 C0.34 18.67 -0.32 18.34 -1 18 C-0.67 17.01 -0.34 16.02 0 15 C-0.99 15 -1.98 15 -3 15 C-3.45762712 6.27118644 -3.45762712 6.27118644 -1.875 1.875 C-1.25625 1.25625 -0.6375 0.6375 0 0 Z " fill="#C80203" transform="translate(317,161)"/>
<path d="M0 0 C0 15.84 0 31.68 0 48 C4.29 48 8.58 48 13 48 C13.66 48.33 14.32 48.66 15 49 C15.96972498 53.58415445 15.93625685 56.31871573 15 61 C6.09 61 -2.82 61 -12 61 C-13.35439668 58.29120665 -13.06501451 55.99066732 -13 53 C-12.8453125 53.9590625 -12.8453125 53.9590625 -12.6875 54.9375 C-12.460625 55.618125 -12.23375 56.29875 -12 57 C-9.0804957 57.9731681 -6.94555049 58.1929546 -3.89453125 58.31640625 C-2.42016602 58.37924805 -2.42016602 58.37924805 -0.91601562 58.44335938 C0.10814453 58.48267578 1.13230469 58.52199219 2.1875 58.5625 C3.74114258 58.62727539 3.74114258 58.62727539 5.32617188 58.69335938 C7.8839819 58.79944366 10.44188845 58.90150146 13 59 C13 57.02 13 55.04 13 53 C12.34 53 11.68 53 11 53 C11 52.34 11 51.68 11 51 C10.2265625 51.2475 10.2265625 51.2475 9.4375 51.5 C4.92291602 52.42606851 0.40636279 52.41003609 -4 51 C-4 48.36 -4 45.72 -4 43 C-3.67 43 -3.34 43 -3 43 C-2.67 29.8 -2.34 16.6 -2 3 C-4.97 2.67 -7.94 2.34 -11 2 C-11.33 3.32 -11.66 4.64 -12 6 C-12 4.35 -12 2.7 -12 1 C-10 0 -10 0 0 0 Z " fill="#AB2524" transform="translate(402,157)"/>
<path d="M0 0 C4.95 0 9.9 0 15 0 C15.33 2.31 15.66 4.62 16 7 C15.34 7 14.68 7 14 7 C14 5.68 14 4.36 14 3 C10.7 3.33 7.4 3.66 4 4 C3.17499392 7.3000243 2.8536574 9.70738162 2.79467773 13.04394531 C2.77473251 14.04468079 2.75478729 15.04541626 2.73423767 16.07647705 C2.71752518 17.14952087 2.70081268 18.2225647 2.68359375 19.328125 C2.66281265 20.43226746 2.64203156 21.53640991 2.62062073 22.67401123 C2.55526354 26.19927783 2.49630436 29.72461859 2.4375 33.25 C2.39430164 35.64063265 2.35068693 38.03125782 2.30664062 40.421875 C2.19959628 46.28117173 2.09780415 52.14054214 2 58 C4.64 57.67 7.28 57.34 10 57 C9.83701416 56.46084961 9.67402832 55.92169922 9.50610352 55.36621094 C8.90718336 52.56604976 8.88773211 50.00450567 8.90234375 47.140625 C8.90556641 46.02558594 8.90878906 44.91054687 8.91210938 43.76171875 C8.92048828 42.60285156 8.92886719 41.44398438 8.9375 40.25 C8.94201172 39.07566406 8.94652344 37.90132812 8.95117188 36.69140625 C8.96294906 33.79421928 8.97939674 30.89713546 9 28 C12 29 12 29 13.1875 31 C14.28113733 35.03804554 14.16301345 38.84315708 14 43 C13.34 41.68 12.68 40.36 12 39 C11.67 45.6 11.34 52.2 11 59 C4.565 59.495 4.565 59.495 -2 60 C-1.67 59.01 -1.34 58.02 -1 57 C-0.88373271 55.14471321 -0.82339944 53.2857064 -0.79467773 51.42700195 C-0.77473251 50.28604568 -0.75478729 49.14508942 -0.73423767 47.96955872 C-0.71752518 46.73823715 -0.70081268 45.50691559 -0.68359375 44.23828125 C-0.66281265 42.97735153 -0.64203156 41.71642181 -0.62062073 40.4172821 C-0.56627878 37.06854542 -0.51603834 33.71979795 -0.46777344 30.37097168 C-0.41749643 26.95233771 -0.36184276 23.53379174 -0.30664062 20.11523438 C-0.19946496 13.4102242 -0.09819188 6.70514752 0 0 Z " fill="#B34B4C" transform="translate(285,158)"/>
<path d="M0 0 C0.99 0.33 1.98 0.66 3 1 C3.12375 1.78375 3.2475 2.5675 3.375 3.375 C3.79117993 6.14057822 3.79117993 6.14057822 6 8 C8.32275177 8.40047444 10.65739357 8.7397104 13 9 C12.67 9.99 12.34 10.98 12 12 C7.545 12.495 7.545 12.495 3 13 C2.7775836 21.07231374 2.7775836 21.07231374 4 29 C7.9140596 32.66943088 12.87296623 32.67606976 18 33 C18 33.99 18 34.98 18 36 C11.4 36 4.8 36 -2 36 C-1.88035817 31.03359139 -1.75782543 26.06743709 -1.62768555 21.10131836 C-1.58427561 19.41060701 -1.54260511 17.71985009 -1.50268555 16.02905273 C-1.44512906 13.60386394 -1.38139351 11.17890585 -1.31640625 8.75390625 C-1.29969376 7.99348526 -1.28298126 7.23306427 -1.26576233 6.44960022 C-1.11387171 1.11387171 -1.11387171 1.11387171 0 0 Z " fill="#C70103" transform="translate(335,177)"/>
<path d="M0 0 C3.5 0.25 3.5 0.25 5.5 2.25 C2.53 2.25 -0.44 2.25 -3.5 2.25 C-3.17 19.41 -2.84 36.57 -2.5 54.25 C-0.52 54.58 1.46 54.91 3.5 55.25 C3.5 48.32 3.5 41.39 3.5 34.25 C4.16 34.25 4.82 34.25 5.5 34.25 C5.83 33.59 6.16 32.93 6.5 32.25 C7.64806378 48.95842825 7.64806378 48.95842825 7.5 57.25 C3.08915004 59.82712582 0.41561622 59.21700647 -4.5 58.25 C-5.7679188 55.71416241 -5.6338601 53.936227 -5.64526367 51.09765625 C-5.65164352 50.02314209 -5.65802338 48.94862793 -5.66459656 47.84155273 C-5.66570938 46.67696533 -5.6668222 45.51237793 -5.66796875 44.3125 C-5.67129715 43.12148682 -5.67462555 41.93047363 -5.67805481 40.70336914 C-5.6831246 38.1814818 -5.68546312 35.65958774 -5.68530273 33.13769531 C-5.68749086 29.26616455 -5.70565084 25.39491786 -5.72460938 21.5234375 C-5.72754287 19.07812598 -5.72952796 16.6328131 -5.73046875 14.1875 C-5.73765427 13.0229126 -5.74483978 11.8583252 -5.75224304 10.65844727 C-5.74916641 9.58393311 -5.74608978 8.50941895 -5.74291992 7.40234375 C-5.74434494 6.45351318 -5.74576996 5.50468262 -5.74723816 4.52709961 C-5.31143337 0.51327377 -3.85364572 0.27526041 0 0 Z " fill="#B14949" transform="translate(364.5,158.75)"/>
<path d="M0 0 C0.66 0 1.32 0 2 0 C2.13277344 0.78246094 2.26554688 1.56492188 2.40234375 2.37109375 C2.57894531 3.38300781 2.75554687 4.39492187 2.9375 5.4375 C3.11152344 6.44683594 3.28554687 7.45617187 3.46484375 8.49609375 C3.74751097 10.9287438 3.74751097 10.9287438 5 12 C5.08861992 14.8116338 5.11522355 17.59858255 5.09765625 20.41015625 C5.0962413 21.25219101 5.09482635 22.09422577 5.09336853 22.96177673 C5.08775263 25.66205335 5.07519748 28.36224828 5.0625 31.0625 C5.05748705 32.88867068 5.05292379 34.71484266 5.04882812 36.54101562 C5.03777804 41.02737542 5.02050279 45.51367384 5 50 C6.98 50 8.96 50 11 50 C11 50.99 11 51.98 11 53 C11.66 53.33 12.32 53.66 13 54 C10.63386544 55.18306728 9.13219264 55.13354608 6.5 55.125 C5.7059375 55.12757813 4.911875 55.13015625 4.09375 55.1328125 C2 55 2 55 0 54 C0 36.18 0 18.36 0 0 Z " fill="#B20C0D" transform="translate(231,164)"/>
<path d="M0 0 C2 3 2 3 1 9 C-3.29 9 -7.58 9 -12 9 C-12 8.67 -12 8.34 -12 8 C-8.04 8 -4.08 8 0 8 C-0.66 6.35 -1.32 4.7 -2 3 C-4.62594784 3.1136515 -7.25011547 3.24039054 -9.875 3.375 C-10.62136719 3.4059375 -11.36773437 3.436875 -12.13671875 3.46875 C-16.53473188 3.55643831 -16.53473188 3.55643831 -20 6 C-20.33034828 8.14052502 -20.33034828 8.14052502 -20.31884766 10.63330078 C-20.33871735 11.59414581 -20.35858704 12.55499084 -20.37905884 13.54495239 C-20.39061005 14.58457123 -20.40216125 15.62419006 -20.4140625 16.6953125 C-20.43342865 17.75789276 -20.4527948 18.82047302 -20.4727478 19.91525269 C-20.53266084 23.31841943 -20.57897598 26.72161978 -20.625 30.125 C-20.66316897 32.4284004 -20.70222005 34.73178636 -20.7421875 37.03515625 C-20.83837206 42.6899873 -20.92235974 48.34488516 -21 54 C-14.4 54 -7.8 54 -1 54 C-1 53.01 -1 52.02 -1 51 C-1.61488281 51.01160156 -2.22976563 51.02320313 -2.86328125 51.03515625 C-3.67152344 51.04417969 -4.47976563 51.05320313 -5.3125 51.0625 C-6.11300781 51.07410156 -6.91351563 51.08570313 -7.73828125 51.09765625 C-10 51 -10 51 -13 50 C-13 49.34 -13 48.68 -13 48 C-8.71 48 -4.42 48 0 48 C0 50.31 0 52.62 0 55 C-7.26 55 -14.52 55 -22 55 C-22.14448145 49.88122871 -22.28753608 44.76245351 -22.42724609 39.64355469 C-22.47496093 37.90980887 -22.5234371 36.1760838 -22.57275391 34.44238281 C-22.88933615 23.29093469 -23.07011641 12.15629943 -23 1 C-22.3387915 1.00523682 -21.67758301 1.01047363 -20.99633789 1.01586914 C-18.01840149 1.03657656 -15.04048018 1.04964012 -12.0625 1.0625 C-11.02158203 1.07087891 -9.98066406 1.07925781 -8.90820312 1.08789062 C-7.91884766 1.09111328 -6.92949219 1.09433594 -5.91015625 1.09765625 C-4.99371338 1.10289307 -4.07727051 1.10812988 -3.13305664 1.11352539 C-1.01636977 1.23921211 -1.01636977 1.23921211 0 0 Z " fill="#B60908" transform="translate(354,159)"/>
<path d="M0 0 C0.33 0 0.66 0 1 0 C1 13.53 1 27.06 1 41 C-2.63 41 -6.26 41 -10 41 C-13.43842477 37.56157523 -14.24072961 32.6885603 -15.6875 28.125 C-16.02072266 27.11824219 -16.35394531 26.11148438 -16.69726562 25.07421875 C-17.00728516 24.10355469 -17.31730469 23.13289063 -17.63671875 22.1328125 C-17.92248779 21.24480957 -18.20825684 20.35680664 -18.50268555 19.44189453 C-19.02494301 16.87752579 -18.85200449 15.44475883 -18 13 C-17.34 13 -16.68 13 -16 13 C-15.80664062 13.74765625 -15.61328125 14.4953125 -15.4140625 15.265625 C-15.15367187 16.25046875 -14.89328125 17.2353125 -14.625 18.25 C-14.36976563 19.22453125 -14.11453125 20.1990625 -13.8515625 21.203125 C-13.11003903 23.94749416 -13.11003903 23.94749416 -11.8984375 26.109375 C-11 28 -11 28 -11 32 C-10.34 32 -9.68 32 -9 32 C-8.67 33.65 -8.34 35.3 -8 37 C-4.535 36.505 -4.535 36.505 -1 36 C-1.00785522 34.73724243 -1.00785522 34.73724243 -1.01586914 33.44897461 C-1.03300762 30.29744727 -1.04549696 27.14594386 -1.05493164 23.99438477 C-1.05993113 22.63565281 -1.06673291 21.27692615 -1.07543945 19.91821289 C-1.08769842 17.95461415 -1.09273487 15.99097459 -1.09765625 14.02734375 C-1.10289307 12.84906006 -1.10812988 11.67077637 -1.11352539 10.45678711 C-0.99692685 6.90642424 -0.5655059 3.50457116 0 0 Z " fill="#A30C0C" transform="translate(265,177)"/>
<path d="M0 0 C1.98 0 3.96 0 6 0 C6 18.48 6 36.96 6 56 C3.36 56.33 0.72 56.66 -2 57 C-1.67 39.51 -1.34 22.02 -1 4 C1 6 1 6 1.24050903 8.02481079 C1.23606781 8.85531952 1.23162659 9.68582825 1.22705078 10.54150391 C1.22689972 11.48232819 1.22674866 12.42315247 1.22659302 13.39248657 C1.21627045 14.41023163 1.20594788 15.42797668 1.1953125 16.4765625 C1.1924826 17.51694672 1.18965271 18.55733093 1.18673706 19.62924194 C1.17551704 22.96127694 1.15040915 26.29304586 1.125 29.625 C1.11497256 31.88020446 1.1058463 34.13541312 1.09765625 36.390625 C1.07557178 41.92717454 1.04207639 47.46356827 1 53 C2.32 53 3.64 53 5 53 C4.67 36.17 4.34 19.34 4 2 C3.01 1.67 2.02 1.34 1 1 C1 1.66 1 2.32 1 3 C0.34 3 -0.32 3 -1 3 C-0.67 2.01 -0.34 1.02 0 0 Z " fill="#BC0807" transform="translate(273,160)"/>
<path d="M0 0 C0.66 0 1.32 0 2 0 C1.67 4.62 1.34 9.24 1 14 C4.63 14 8.26 14 12 14 C12 17.63 12 21.26 12 25 C8.37 25 4.74 25 1 25 C1 29.29 1 33.58 1 38 C0.34 37.67 -0.32 37.34 -1 37 C-1.625 33.9375 -1.625 33.9375 -2 31 C-2.33 31 -2.66 31 -3 31 C-2.505 26.545 -2.505 26.545 -2 22 C0.31119792 21.54427083 2.62239583 21.08854167 4.93359375 20.6328125 C5.61550781 20.42398438 6.29742187 20.21515625 7 20 C7.33 19.34 7.66 18.68 8 18 C5.69 18 3.38 18 1 18 C-1.23157731 14.42771221 -1.23870158 11.46913776 -1.1875 7.3125 C-1.18105469 6.15363281 -1.17460937 4.99476563 -1.16796875 3.80078125 C-1 1 -1 1 0 0 Z " fill="#AA0F0F" transform="translate(340,168)"/>
<path d="M0 0 C0.85899309 5.32807875 1.36785557 9.01504091 -1 14 C-1.75431393 16.98181814 -2.38297078 19.98705943 -3 23 C-4.98 23 -6.96 23 -9 23 C-9.50904657 21.12743583 -10.00682455 19.25180659 -10.5 17.375 C-10.91765625 15.80878906 -10.91765625 15.80878906 -11.34375 14.2109375 C-11.99898794 11.00495185 -12.26156213 8.26018512 -12 5 C-11.34 4.34 -10.68 3.68 -10 3 C-7 6.75 -7 6.75 -7 9 C-6.34 9 -5.68 9 -5 9 C-4.81824219 8.15115234 -4.81824219 8.15115234 -4.6328125 7.28515625 C-4.38144531 6.18494141 -4.38144531 6.18494141 -4.125 5.0625 C-3.96257812 4.33160156 -3.80015625 3.60070312 -3.6328125 2.84765625 C-2.93449973 0.80875539 -2.29775298 0 0 0 Z " fill="#C40304" transform="translate(312,190)"/>
<path d="M0 0 C0.66 0 1.32 0 2 0 C2.67608269 2.85222385 3.34105115 5.70631293 4 8.5625 C4.19078125 9.36236328 4.3815625 10.16222656 4.578125 10.98632812 C5.67461122 15.78345532 6.21132197 20.08016034 6 25 C6.99 25 7.98 25 9 25 C8.125 29.75 8.125 29.75 7 32 C6.34 32 5.68 32 5 32 C3.375 29.5 3.375 29.5 2 27 C1.31292445 29.49064888 1 31.37886292 1 34 C0.34 34 -0.32 34 -1 34 C-1.09087891 32.66195312 -1.09087891 32.66195312 -1.18359375 31.296875 C-1.26738281 30.12640625 -1.35117187 28.9559375 -1.4375 27.75 C-1.51871094 26.58984375 -1.59992188 25.4296875 -1.68359375 24.234375 C-1.93247787 21.69022624 -2.28114942 19.44046752 -3 17 C-2.01 16.67 -1.02 16.34 0 16 C0 10.72 0 5.44 0 0 Z " fill="#BA1311" transform="translate(300,167)"/>
<path d="M0 0 C0.33 0 0.66 0 1 0 C1.9411922 12.86791179 2.12290707 25.66388053 2.0625 38.5625 C2.05746781 40.46028526 2.05290798 42.35807183 2.04882812 44.25585938 C2.03797514 48.83727294 2.02080844 53.41862129 2 58 C0.741875 58.04125 -0.51625 58.0825 -1.8125 58.125 C-2.52019531 58.14820313 -3.22789062 58.17140625 -3.95703125 58.1953125 C-6 58 -6 58 -9 56 C-8.34 56 -7.68 56 -7 56 C-7 43.13 -7 30.26 -7 17 C-6.67 17 -6.34 17 -6 17 C-5.96241577 18.36934692 -5.96241577 18.36934692 -5.92407227 19.76635742 C-5.82868393 23.16767631 -5.72946598 26.56883939 -5.62768555 29.9699707 C-5.58449295 31.43932768 -5.54280744 32.9087298 -5.50268555 34.37817383 C-5.44460118 36.49574355 -5.38101902 38.61308937 -5.31640625 40.73046875 C-5.27974854 42.00301514 -5.24309082 43.27556152 -5.20532227 44.58666992 C-5.08597267 47.92235325 -5.08597267 47.92235325 -4.41772461 50.8293457 C-4 53 -4 53 -5 55 C-3.68 55 -2.36 55 -1 55 C-0.67 36.85 -0.34 18.7 0 0 Z " fill="#A80809" transform="translate(430,159)"/>
<path d="M0 0 C0.66 0.33 1.32 0.66 2 1 C1.67 2.32 1.34 3.64 1 5 C-3.29 5 -7.58 5 -12 5 C-11.814375 6.051875 -11.62875 7.10375 -11.4375 8.1875 C-11 12 -11 12 -12 17 C-8.37 17 -4.74 17 -1 17 C-1 20.63 -1 24.26 -1 28 C-4.3 28 -7.6 28 -11 28 C-8.4345406 25.4345406 -6.52313332 25.45953913 -3 25 C-3 23.68 -3 22.36 -3 21 C-3.93972656 21.05220703 -3.93972656 21.05220703 -4.8984375 21.10546875 C-5.71570313 21.13253906 -6.53296875 21.15960938 -7.375 21.1875 C-8.18710937 21.22230469 -8.99921875 21.25710937 -9.8359375 21.29296875 C-10.55007813 21.19628906 -11.26421875 21.09960938 -12 21 C-14.52775351 17.20836973 -14.22443035 14.19125969 -14.125 9.8125 C-14.11597656 9.06291016 -14.10695313 8.31332031 -14.09765625 7.54101562 C-14.07412578 5.69387346 -14.03825561 3.84689588 -14 2 C-13.07316406 1.93941406 -12.14632813 1.87882813 -11.19140625 1.81640625 C-9.39509766 1.69072266 -9.39509766 1.69072266 -7.5625 1.5625 C-5.77005859 1.44068359 -5.77005859 1.44068359 -3.94140625 1.31640625 C-1.11429756 1.32343886 -1.11429756 1.32343886 0 0 Z " fill="#AF3335" transform="translate(383,165)"/>
<path d="M0 0 C1.65 0 3.3 0 5 0 C5 0.66 5 1.32 5 2 C4.01 2.33 3.02 2.66 2 3 C1.95048901 8.74746449 1.9142277 14.49480427 1.89013672 20.24243164 C1.88009147 22.19688073 1.86645283 24.15131484 1.84912109 26.10571289 C1.82480797 28.91816917 1.81350203 31.73042639 1.8046875 34.54296875 C1.79436493 35.41398727 1.78404236 36.2850058 1.77340698 37.18241882 C1.77258235 41.66128885 2.11723054 44.8613846 4 49 C3.67 49.66 3.34 50.32 3 51 C3.99 50.505 3.99 50.505 5 50 C5.01458252 49.44014404 5.02916504 48.88028809 5.04418945 48.3034668 C5.11871352 45.76411863 5.21535581 43.22607922 5.3125 40.6875 C5.33505859 39.80642578 5.35761719 38.92535156 5.38085938 38.01757812 C5.41630859 37.17001953 5.45175781 36.32246094 5.48828125 35.44921875 C5.51446533 34.66893311 5.54064941 33.88864746 5.56762695 33.0847168 C6.10308047 30.50299031 6.95190359 29.6167885 9 28 C11.48046875 27.05078125 11.48046875 27.05078125 14.1875 26.3125 C15.08855469 26.06113281 15.98960937 25.80976563 16.91796875 25.55078125 C17.60503906 25.36902344 18.29210937 25.18726563 19 25 C19 26.32 19 27.64 19 29 C18.43410156 29.12117188 17.86820312 29.24234375 17.28515625 29.3671875 C16.55167969 29.53476563 15.81820313 29.70234375 15.0625 29.875 C13.96615234 30.11863281 13.96615234 30.11863281 12.84765625 30.3671875 C10.79299706 30.82961523 10.79299706 30.82961523 10 33 C9.01 32.67 8.02 32.34 7 32 C7 38.93 7 45.86 7 53 C5.02 53 3.04 53 1 53 C0 52 0 52 -0.12025452 49.90562439 C-0.1169236 48.52329369 -0.1169236 48.52329369 -0.11352539 47.11303711 C-0.11344986 46.07203354 -0.11337433 45.03102997 -0.11329651 43.95848083 C-0.10813522 42.8262056 -0.10297394 41.69393036 -0.09765625 40.52734375 C-0.0962413 39.37456436 -0.09482635 38.22178497 -0.09336853 37.03407288 C-0.08775005 33.33518936 -0.07519442 29.63636536 -0.0625 25.9375 C-0.05748738 23.43684983 -0.05292406 20.93619871 -0.04882812 18.43554688 C-0.03777462 12.29034412 -0.02101852 6.14517631 0 0 Z " fill="#B40705" transform="translate(361,161)"/>
<path d="M0 0 C3.63 0 7.26 0 11 0 C12 1 12 1 12.12025452 3.36012268 C12.1169236 4.92898476 12.1169236 4.92898476 12.11352539 6.52954102 C12.11344986 7.71068985 12.11337433 8.89183868 12.11329651 10.10877991 C12.10813522 11.3941716 12.10297394 12.67956329 12.09765625 14.00390625 C12.0962413 15.31205795 12.09482635 16.62020966 12.09336853 17.96800232 C12.0895441 21.45162859 12.07971446 24.93521339 12.06866455 28.41882324 C12.05844882 31.97126708 12.05387056 35.52371759 12.04882812 39.07617188 C12.03809212 46.05079832 12.0210166 53.02539717 12 60 C11.67 60 11.34 60 11 60 C10.85450814 54.63305284 10.71227019 49.26603161 10.57275391 43.89892578 C10.52509595 42.08184614 10.47662381 40.26478763 10.42724609 38.44775391 C10.09770612 26.29512687 9.93311086 14.15710081 10 2 C7.36 2 4.72 2 2 2 C2 10.91 2 19.82 2 29 C1.01 29.33 0.02 29.66 -1 30 C-0.67 20.1 -0.34 10.2 0 0 Z " fill="#CF807F" transform="translate(255,157)"/>
<path d="M0 0 C3.8359375 0.7734375 3.8359375 0.7734375 5.3125 2.8125 C6.10151327 5.32299678 5.87324262 6.55492066 5 9 C4.67 7.35 4.34 5.7 4 4 C3.34 4 2.68 4 2 4 C2 13.24 2 22.48 2 32 C-0.64 32.33 -3.28 32.66 -6 33 C-7.23184766 30.53630468 -7.16732342 28.8105499 -7.1875 26.0625 C-7.20167969 25.18722656 -7.21585937 24.31195313 -7.23046875 23.41015625 C-7 21 -7 21 -5 18 C-4.87625 19.11375 -4.7525 20.2275 -4.625 21.375 C-4.3534187 25.03103677 -4.3534187 25.03103677 -2 27 C-2.02320313 26.30777344 -2.04640625 25.61554688 -2.0703125 24.90234375 C-2.22692926 16.41147822 -1.28135196 8.3745503 0 0 Z " fill="#BA0706" transform="translate(293,183)"/>
<path d="M0 0 C2.97 0 5.94 0 9 0 C9.02312916 7.28421548 9.04091801 14.5684231 9.05181217 21.85266781 C9.05703975 25.23471813 9.06413511 28.6167434 9.07543945 31.9987793 C9.08834267 35.88329777 9.09322924 39.76780597 9.09765625 43.65234375 C9.10281754 44.87211411 9.10797882 46.09188446 9.11329651 47.34861755 C9.11337204 48.46970413 9.11344757 49.59079071 9.11352539 50.74584961 C9.115746 51.73846298 9.11796661 52.73107635 9.12025452 53.75376892 C9 56 9 56 8 57 C6.48071962 57.07179964 4.95832518 57.08392007 3.4375 57.0625 C2.61121094 57.05347656 1.78492188 57.04445312 0.93359375 57.03515625 C0.29550781 57.02355469 -0.34257812 57.01195312 -1 57 C-1 56.67 -1 56.34 -1 56 C1.31 56 3.62 56 6 56 C6.33 37.85 6.66 19.7 7 1 C4.69 1 2.38 1 0 1 C0 0.67 0 0.34 0 0 Z " fill="#9E2B28" transform="translate(318,159)"/>
<path d="M0 0 C2.13002565 3.61430994 2.80911965 7.39515323 3.54296875 11.46875 C3.6756868 12.186073 3.80840485 12.903396 3.94514465 13.64245605 C4.22296412 15.15478766 4.49761374 16.66770459 4.76928711 18.18115234 C5.18641191 20.49396691 5.61895138 22.8035404 6.05273438 25.11328125 C6.3212517 26.58576654 6.58886065 28.05841783 6.85546875 29.53125 C6.9855986 30.21989136 7.11572845 30.90853271 7.24980164 31.61804199 C7.84364119 34.99837158 8.28880251 37.75640617 7 41 C6 42 6 42 3.49609375 42.09765625 C2.48675781 42.08605469 1.47742188 42.07445312 0.4375 42.0625 C-0.57441406 42.05347656 -1.58632812 42.04445312 -2.62890625 42.03515625 C-3.41136719 42.02355469 -4.19382813 42.01195312 -5 42 C-5 41.34 -5 40.68 -5 40 C-0.545 39.505 -0.545 39.505 4 39 C3.83628906 38.18273437 3.67257813 37.36546875 3.50390625 36.5234375 C2.93025394 32.51231824 2.88998396 28.66751879 2.9375 24.625 C2.94201172 23.88894531 2.94652344 23.15289062 2.95117188 22.39453125 C2.96284858 20.59631842 2.98077989 18.79814803 3 17 C2.34 17 1.68 17 1 17 C-0.22517308 11.33357449 -0.09228867 5.76291482 0 0 Z " fill="#A32626" transform="translate(220,177)"/>
<path d="M0 0 C0.99 0 1.98 0 3 0 C3 0.66 3 1.32 3 2 C2.34 2 1.68 2 1 2 C1 20.15 1 38.3 1 57 C0.34 57 -0.32 57 -1 57 C-1.02312916 49.71578452 -1.04091801 42.4315769 -1.05181217 35.14733219 C-1.05703975 31.76528187 -1.06413511 28.3832566 -1.07543945 25.0012207 C-1.08834267 21.11670223 -1.09322924 17.23219403 -1.09765625 13.34765625 C-1.10281754 12.12788589 -1.10797882 10.90811554 -1.11329651 9.65138245 C-1.11337204 8.53029587 -1.11344757 7.40920929 -1.11352539 6.25415039 C-1.115746 5.26153702 -1.11796661 4.26892365 -1.12025452 3.24623108 C-1 1 -1 1 0 0 Z " fill="#9E2626" transform="translate(422,158)"/>
<path d="M0 0 C0.33 0 0.66 0 1 0 C1.51137226 6.90352555 -0.13035626 11.74827614 -3 18 C-1.51793505 17.745504 -0.03931385 17.47088238 1.4375 17.1875 C2.26121094 17.03667969 3.08492188 16.88585937 3.93359375 16.73046875 C4.95646484 16.36888672 4.95646484 16.36888672 6 16 C6.33 15.01 6.66 14.02 7 13 C7.66 13 8.32 13 9 13 C7.125 19.875 7.125 19.875 6 21 C3.98035801 21.07244053 1.95832876 21.08377188 -0.0625 21.0625 C-1.71958984 21.04896484 -1.71958984 21.04896484 -3.41015625 21.03515625 C-4.26480469 21.02355469 -5.11945313 21.01195312 -6 21 C-7.59592878 16.57849239 -6.43575214 13.93481724 -4.59960938 9.87304688 C-4.25736328 9.15181641 -3.91511719 8.43058594 -3.5625 7.6875 C-3.22412109 6.94693359 -2.88574219 6.20636719 -2.53710938 5.44335938 C-1.70342822 3.62335123 -0.85330937 1.81088847 0 0 Z " fill="#AA3936" transform="translate(445,198)"/>
<path d="M0 0 C1.98 0 3.96 0 6 0 C5.67 1.32 5.34 2.64 5 4 C5 3.01 5 2.02 5 1 C1.93912048 3.04058635 1.25577271 3.70779776 0 7 C-0.28638738 9.25985816 -0.28638738 9.25985816 -0.22705078 11.67675781 C-0.22689972 12.59741028 -0.22674866 13.51806274 -0.22659302 14.46661377 C-0.21627045 15.45216248 -0.20594788 16.43771118 -0.1953125 17.453125 C-0.19106766 18.97616241 -0.19106766 18.97616241 -0.18673706 20.52996826 C-0.17555001 23.77009916 -0.15044791 27.00995276 -0.125 30.25 C-0.1149683 32.44791267 -0.10584278 34.64582968 -0.09765625 36.84375 C-0.07561551 42.22926114 -0.04215251 47.61461076 0 53 C3.86770455 54.28923485 7.53437316 54.14505706 11.5625 54.125 C12.73329102 54.13080078 12.73329102 54.13080078 13.92773438 54.13671875 C18.09669875 54.23483265 18.09669875 54.23483265 22 53 C22 53.99 22 54.98 22 56 C18.39590081 56.05800828 14.79192149 56.09359869 11.1875 56.125 C10.16333984 56.14175781 9.13917969 56.15851563 8.08398438 56.17578125 C7.10107422 56.18222656 6.11816406 56.18867188 5.10546875 56.1953125 C4.19949951 56.20578613 3.29353027 56.21625977 2.36010742 56.22705078 C0 56 0 56 -3 54 C-3.75 51.4375 -3.75 51.4375 -4 49 C-3.505 48.505 -3.505 48.505 -3 48 C-2.86419263 44.96926083 -2.78928446 41.95818747 -2.75390625 38.92578125 C-2.72095081 37.04231336 -2.68773947 35.15884993 -2.65429688 33.27539062 C-2.60698431 30.29764064 -2.56259801 27.31990651 -2.52319336 24.34204102 C-2.48333515 21.47392062 -2.43180402 18.6061867 -2.37890625 15.73828125 C-2.3704921 14.85368729 -2.36207794 13.96909332 -2.35340881 13.05769348 C-2.25929192 8.32305863 -1.81724474 4.45109083 0 0 Z " fill="#AC0706" transform="translate(393,160)"/>
<path d="M0 0 C1.32 0 2.64 0 4 0 C4.268125 1.093125 4.53625 2.18625 4.8125 3.3125 C5.94878208 6.84095487 6.50283744 7.61634483 9 10 C9 11.32 9 12.64 9 14 C12.3 14.33 15.6 14.66 19 15 C18.649375 13.9275 18.29875 12.855 17.9375 11.75 C17.05319814 8.21279257 16.97119449 7.25188876 18 4 C18.8466034 5.38782485 19.67675339 6.78569397 20.5 8.1875 C20.9640625 8.96480469 21.428125 9.74210938 21.90625 10.54296875 C23 13 23 13 23 18 C18.38 18 13.76 18 9 18 C6.33333333 12.66666667 3.66666667 7.33333333 1 2 C0.34 2.66 -0.32 3.32 -1 4 C-0.67 2.68 -0.34 1.36 0 0 Z " fill="#A64549" transform="translate(456,202)"/>
<path d="M0 0 C1.00289062 0.10183594 2.00578125 0.20367187 3.0390625 0.30859375 C3.80992187 0.39238281 4.58078125 0.47617188 5.375 0.5625 C7.98215728 6.62159177 10.18077515 12.78327938 12.1875 19.0625 C12.41848389 19.76890625 12.64946777 20.4753125 12.88745117 21.203125 C14.49367044 26.32515911 14.49367044 26.32515911 13.375 28.5625 C10.375 26.5625 10.375 26.5625 9.71484375 24.43359375 C9.51568359 23.22896484 9.51568359 23.22896484 9.3125 22 C8.95072347 19.61816971 8.95072347 19.61816971 8.375 17.5625 C7.715 17.2325 7.055 16.9025 6.375 16.5625 C5.90693355 14.22505706 5.54830206 11.86510921 5.25 9.5 C5.08242187 8.20964844 4.91484375 6.91929687 4.7421875 5.58984375 C4.62101563 4.59082031 4.49984375 3.59179688 4.375 2.5625 C2.7495692 2.70345064 1.12465949 2.85042087 -0.5 3 C-1.40492188 3.08121094 -2.30984375 3.16242188 -3.2421875 3.24609375 C-5.63610861 3.43239285 -5.63610861 3.43239285 -7.625 4.5625 C-7.625 3.2425 -7.625 1.9225 -7.625 0.5625 C-4.89657939 -0.80171031 -3.01546682 -0.31557211 0 0 Z " fill="#B53030" transform="translate(239.625,156.4375)"/>
<path d="M0 0 C0.99 0 1.98 0 3 0 C3.18175781 0.61488281 3.36351562 1.22976562 3.55078125 1.86328125 C3.80214844 2.67152344 4.05351562 3.47976562 4.3125 4.3125 C4.55613281 5.11300781 4.79976563 5.91351563 5.05078125 6.73828125 C5.85737234 9.05985928 5.85737234 9.05985928 7.60546875 10.60546875 C8.06566406 11.06566406 8.52585937 11.52585938 9 12 C9 12.99 9 13.98 9 15 C9.66 15 10.32 15 11 15 C12.7610915 24.68600328 12.7610915 24.68600328 10.0625 28.625 C9.381875 29.40875 8.70125 30.1925 8 31 C7.01 30.67 6.02 30.34 5 30 C5.83007812 27.60742188 5.83007812 27.60742188 6.66015625 25.21484375 C7.69019503 18.5018324 4.79163185 12.76489292 2.08398438 6.81054688 C0 2.16321126 0 2.16321126 0 0 Z " fill="#B00B0C" transform="translate(441,167)"/>
<path d="M0 0 C0.33 0 0.66 0 1 0 C1.39980307 6.69299948 0.57076893 12.36559807 -1.19921875 18.81640625 C-2.53900511 24.14287397 -3.25466517 29.56344008 -4 35 C-4.66 35 -5.32 35 -6 35 C-5.96519531 35.85271484 -5.96519531 35.85271484 -5.9296875 36.72265625 C-5.80808312 41.92558648 -6.32276508 46.07312243 -8 51 C-8.66 51 -9.32 51 -10 51 C-9.44284322 45.85614849 -8.58382852 41.12062954 -7.1875 36.125 C-4.8454446 27.37676619 -3.58508242 18.47767168 -2.30737305 9.52197266 C-2.15051025 8.43319824 -1.99364746 7.34442383 -1.83203125 6.22265625 C-1.69514893 5.24047119 -1.5582666 4.25828613 -1.41723633 3.24633789 C-1 1 -1 1 0 0 Z " fill="#AB3634" transform="translate(199,156)"/>
<path d="M0 0 C0.33 0 0.66 0 1 0 C2.14806378 16.70842825 2.14806378 16.70842825 2 25 C-2.38008443 27.58464442 -5.11125113 26.81479148 -10 26 C-9.01 24.515 -9.01 24.515 -8 23 C-6.02 23 -4.04 23 -2 23 C-2 16.07 -2 9.14 -2 2 C-1.34 2 -0.68 2 0 2 C0 1.34 0 0.68 0 0 Z " fill="#9C2021" transform="translate(370,191)"/>
<path d="M0 0 C3 1 3 1 4.1875 3 C5.28113733 7.03804554 5.16301345 10.84315708 5 15 C4.34 13.68 3.68 12.36 3 11 C2.67 17.6 2.34 24.2 2 31 C-2.95 31.495 -2.95 31.495 -8 32 C-7.67 30.68 -7.34 29.36 -7 28 C-7 28.66 -7 29.32 -7 30 C-3.04 29.505 -3.04 29.505 1 29 C0.83701416 28.46084961 0.67402832 27.92169922 0.50610352 27.36621094 C-0.09281664 24.56604976 -0.11226789 22.00450567 -0.09765625 19.140625 C-0.09282227 17.46806641 -0.09282227 17.46806641 -0.08789062 15.76171875 C-0.07951172 14.60285156 -0.07113281 13.44398438 -0.0625 12.25 C-0.05798828 11.07566406 -0.05347656 9.90132812 -0.04882812 8.69140625 C-0.03705094 5.79421928 -0.02060326 2.89713546 0 0 Z " fill="#A92A2A" transform="translate(294,186)"/>
<path d="M0 0 C0.66 0 1.32 0 2 0 C2.19335938 0.75925781 2.38671875 1.51851562 2.5859375 2.30078125 C2.84632813 3.29464844 3.10671875 4.28851563 3.375 5.3125 C3.63023437 6.29863281 3.88546875 7.28476563 4.1484375 8.30078125 C4.91913174 11.1805816 4.91913174 11.1805816 7 14 C7 16 7 18 7 20 C7.91257306 22.78566059 7.91257306 22.78566059 9 25 C12.3 25.33 15.6 25.66 19 26 C19 26.66 19 27.32 19 28 C17.20866022 28.05391993 15.41686101 28.09275571 13.625 28.125 C12.62726563 28.14820313 11.62953125 28.17140625 10.6015625 28.1953125 C8 28 8 28 6 26 C4.55994981 22.44970257 3.46993974 18.77592214 2.3125 15.125 C1.97927734 14.11824219 1.64605469 13.11148438 1.30273438 12.07421875 C0.99271484 11.10355469 0.68269531 10.13289062 0.36328125 9.1328125 C0.07751221 8.24480957 -0.20825684 7.35680664 -0.50268555 6.44189453 C-1.02494301 3.87752579 -0.85200449 2.44475883 0 0 Z " fill="#B4292C" transform="translate(247,190)"/>
<path d="M0 0 C0.33 0 0.66 0 1 0 C1 12.54 1 25.08 1 38 C8.92 38.33 16.84 38.66 25 39 C25 39.66 25 40.32 25 41 C16.75 41 8.5 41 0 41 C0 27.47 0 13.94 0 0 Z " fill="#A33132" transform="translate(331,176)"/>
<path d="M0 0 C0.33 0 0.66 0 1 0 C1.33 14.19 1.66 28.38 2 43 C4.64 42.34 7.28 41.68 10 41 C10 41.99 10 42.98 10 44 C10.66 44.33 11.32 44.66 12 45 C9.63386544 46.18306728 8.13219264 46.13354608 5.5 46.125 C4.7059375 46.12757813 3.911875 46.13015625 3.09375 46.1328125 C1 46 1 46 -1 45 C-0.67 30.15 -0.34 15.3 0 0 Z " fill="#BE4B4C" transform="translate(232,173)"/>
<path d="M0 0 C0.33 6.27 0.66 12.54 1 19 C-1.31 18.67 -3.62 18.34 -6 18 C-8.30143236 14.54785147 -8.13833854 13.76520676 -7.625 9.8125 C-7.51414063 8.91144531 -7.40328125 8.01039063 -7.2890625 7.08203125 C-7.19367188 6.39496094 -7.09828125 5.70789063 -7 5 C-6.01 5 -5.02 5 -4 5 C-4 3.68 -4 2.36 -4 1 C-1 0 -1 0 0 0 Z M-3 2 C-3.33872513 3.41538717 -3.67074624 4.83237963 -4 6.25 C-4.185625 7.03890625 -4.37125 7.8278125 -4.5625 8.640625 C-5.12154828 11.25556002 -5.12154828 11.25556002 -5 15 C-3.68 14.67 -2.36 14.34 -1 14 C-0.95875 12.7625 -0.9175 11.525 -0.875 10.25 C-0.85179687 9.55390625 -0.82859375 8.8578125 -0.8046875 8.140625 C-1.02751458 5.69844025 -1.79085 4.11363229 -3 2 Z " fill="#B92829" transform="translate(211,179)"/>
<path d="M0 0 C0 15.84 0 31.68 0 48 C2.64 48 5.28 48 8 48 C8 48.33 8 48.66 8 49 C5.03 49 2.06 49 -1 49 C-1.33 33.82 -1.66 18.64 -2 3 C-4.97 2.67 -7.94 2.34 -11 2 C-11.33 3.32 -11.66 4.64 -12 6 C-12 4.35 -12 2.7 -12 1 C-10 0 -10 0 0 0 Z " fill="#DE9090" transform="translate(402,157)"/>
<path d="M0 0 C0.99 0 1.98 0 3 0 C3.36116046 1.4774746 3.71375048 2.95704675 4.0625 4.4375 C4.35833984 5.67306641 4.35833984 5.67306641 4.66015625 6.93359375 C4.77230469 7.61550781 4.88445312 8.29742187 5 9 C4 10 4 10 1.40795898 10.11352539 C0.28204346 10.10828857 -0.84387207 10.10305176 -2.00390625 10.09765625 C-3.21884766 10.09443359 -4.43378906 10.09121094 -5.68554688 10.08789062 C-6.96494141 10.07951172 -8.24433594 10.07113281 -9.5625 10.0625 C-10.84576172 10.05798828 -12.12902344 10.05347656 -13.45117188 10.04882812 C-16.63416022 10.03699545 -19.81705762 10.02051068 -23 10 C-24.35439668 7.29120665 -24.06501451 4.99066732 -24 2 C-23.896875 2.639375 -23.79375 3.27875 -23.6875 3.9375 C-23.460625 4.618125 -23.23375 5.29875 -23 6 C-20.0804957 6.9731681 -17.94555049 7.1929546 -14.89453125 7.31640625 C-13.91162109 7.35830078 -12.92871094 7.40019531 -11.91601562 7.44335938 C-10.37977539 7.50233398 -10.37977539 7.50233398 -8.8125 7.5625 C-7.77673828 7.60568359 -6.74097656 7.64886719 -5.67382812 7.69335938 C-3.1160181 7.79944366 -0.55811155 7.90150146 2 8 C2 6.02 2 4.04 2 2 C1.34 2 0.68 2 0 2 C0 1.34 0 0.68 0 0 Z " fill="#A83435" transform="translate(413,208)"/>
<path d="M0 0 C0.66 0 1.32 0 2 0 C1.56865737 3.45074104 0.52783257 5.99070484 -1.125 9 C-2.38663392 11.46801381 -3 12.6982767 -3 15.5 C-1.8002176 18.499456 -0.2897694 21.25640955 1.35546875 24.03515625 C2 26 2 26 1.11328125 28.24609375 C0.74589844 28.82488281 0.37851562 29.40367187 0 30 C0 28.68 0 27.36 0 26 C-0.66 26 -1.32 26 -2 26 C-2.474375 24.865625 -2.94875 23.73125 -3.4375 22.5625 C-4.63622083 19.24259834 -4.63622083 19.24259834 -6 18 C-6.203125 16.0390625 -6.203125 16.0390625 -6.25 13.625 C-6.27578125 12.83351562 -6.3015625 12.04203125 -6.328125 11.2265625 C-5.92438801 8.48691867 -5.03175933 7.79693287 -3 6 C-2.29289322 4.35008418 -1.62056011 2.68437744 -1 1 C-0.67 0.67 -0.34 0.34 0 0 Z " fill="#B03135" transform="translate(469,173)"/>
<path d="M0 0 C1.65322266 0.01740234 1.65322266 0.01740234 3.33984375 0.03515625 C4.99693359 0.04869141 4.99693359 0.04869141 6.6875 0.0625 C7.54214844 0.07410156 8.39679688 0.08570313 9.27734375 0.09765625 C12.20412624 5.64845062 14.44421705 11.09833251 16.27734375 17.09765625 C14.95734375 16.76765625 13.63734375 16.43765625 12.27734375 16.09765625 C12.15359375 15.33453125 12.02984375 14.57140625 11.90234375 13.78515625 C11.39631583 10.89498489 11.39631583 10.89498489 9.27734375 8.09765625 C9.27734375 6.77765625 9.27734375 5.45765625 9.27734375 4.09765625 C8.61734375 4.09765625 7.95734375 4.09765625 7.27734375 4.09765625 C7.27734375 3.43765625 7.27734375 2.77765625 7.27734375 2.09765625 C4.30734375 2.09765625 1.33734375 2.09765625 -1.72265625 2.09765625 C-1.39265625 2.75765625 -1.06265625 3.41765625 -0.72265625 4.09765625 C-0.68243234 6.43064285 -0.67945378 8.76472291 -0.72265625 11.09765625 C-3.02959668 7.6372456 -3.34322137 5.19555294 -3.72265625 1.09765625 C-2.72265625 0.09765625 -2.72265625 0.09765625 0 0 Z " fill="#AA3837" transform="translate(441.72265625,155.90234375)"/>
<path d="M0 0 C2.50298434 2.93828597 3.46930939 5.17902761 4 9 C3.67 9 3.34 9 3 9 C2.67 17.58 2.34 26.16 2 35 C1.34 35 0.68 35 0 35 C-0.19838161 30.6670938 -0.38174427 26.33367446 -0.5625 22 C-0.61857422 20.77925781 -0.67464844 19.55851562 -0.73242188 18.30078125 C-0.98568671 12.05358195 -1.04145096 6.17156127 0 0 Z " fill="#9D110E" transform="translate(242,182)"/>
<path d="M0 0 C0.66 0.66 1.32 1.32 2 2 C2.66 1.34 3.32 0.68 4 0 C8.2585854 6.38787809 7.10949904 14.59056503 7 22 C4.22957891 19.22957891 4.60203894 17.23466195 4.375 13.375 C4.30023438 12.18648437 4.22546875 10.99796875 4.1484375 9.7734375 C4.09945312 8.85820312 4.05046875 7.94296875 4 7 C3.01 7 2.02 7 1 7 C1 8.32 1 9.64 1 11 C0.01 11 -0.98 11 -2 11 C-2.19622241 6.78121808 -1.80230168 3.82989106 0 0 Z " fill="#B40809" transform="translate(206,173)"/>
<path d="M0 0 C4.95 0 9.9 0 15 0 C15.33 2.31 15.66 4.62 16 7 C15.34 7 14.68 7 14 7 C14 5.68 14 4.36 14 3 C10.7 3.33 7.4 3.66 4 4 C3.71125 4.804375 3.4225 5.60875 3.125 6.4375 C2 9 2 9 0 10 C0 6.7 0 3.4 0 0 Z " fill="#A21212" transform="translate(285,158)"/>
<path d="M0 0 C0.33 0 0.66 0 1 0 C1 16.5 1 33 1 50 C2.98 50 4.96 50 7 50 C7 50.66 7 51.32 7 52 C4.36 52.33 1.72 52.66 -1 53 C-0.67 35.51 -0.34 18.02 0 0 Z " fill="#A30806" transform="translate(272,164)"/>
<path d="M0 0 C4.29 0 8.58 0 13 0 C12.68978386 6.97986313 9.5048042 12.07291522 6 18 C5.67 18 5.34 18 5 18 C5 15.69 5 13.38 5 11 C5.66 11 6.32 11 7 11 C6.938125 10.05125 6.87625 9.1025 6.8125 8.125 C6.874375 7.09375 6.93625 6.0625 7 5 C7.99 4.34 8.98 3.68 10 3 C6.7 2.34 3.4 1.68 0 1 C0 0.67 0 0.34 0 0 Z " fill="#AB2022" transform="translate(466,155)"/>
<path d="M0 0 C2 1.75 2 1.75 4 4 C4 5.32 4 6.64 4 8 C4.66 8 5.32 8 6 8 C10.40399736 12.54162228 11.89717992 17.17244781 12.125 23.4375 C12.08375 24.283125 12.0425 25.12875 12 26 C10.35 26 8.7 26 7 26 C8.32 25.67 9.64 25.34 11 25 C9.88145414 21.27385847 9.88145414 21.27385847 7 19 C5.03191281 15.93853104 4.80009165 13.59835033 5 10 C4.01 9.67 3.02 9.34 2 9 C1.26953125 6.93359375 1.26953125 6.93359375 0.8125 4.4375 C0.65394531 3.61121094 0.49539063 2.78492188 0.33203125 1.93359375 C0.16767578 0.97646484 0.16767578 0.97646484 0 0 Z " fill="#A60D0D" transform="translate(463,191)"/>
<path d="M0 0 C2 3 2 3 1 9 C-3.29 9 -7.58 9 -12 9 C-12 8.67 -12 8.34 -12 8 C-8.04 8 -4.08 8 0 8 C-0.66 6.35 -1.32 4.7 -2 3 C-8.6 2.67 -15.2 2.34 -22 2 C-22 6.95 -22 11.9 -22 17 C-22.33 17 -22.66 17 -23 17 C-23 11.72 -23 6.44 -23 1 C-20.63521484 1.01740234 -20.63521484 1.01740234 -18.22265625 1.03515625 C-16.16927201 1.04453243 -14.1158865 1.05363282 -12.0625 1.0625 C-11.02158203 1.07087891 -9.98066406 1.07925781 -8.90820312 1.08789062 C-7.91884766 1.09111328 -6.92949219 1.09433594 -5.91015625 1.09765625 C-4.99371338 1.10289307 -4.07727051 1.10812988 -3.13305664 1.11352539 C-1.01636977 1.23921211 -1.01636977 1.23921211 0 0 Z " fill="#A50A09" transform="translate(354,159)"/>
<path d="M0 0 C0.33 0 0.66 0 1 0 C1.19224376 3.9504953 1.37096681 7.90134584 1.53710938 11.85302734 C1.59555475 13.19759566 1.65771076 14.54200798 1.72363281 15.88623047 C1.81767443 17.81693337 1.89732692 19.7483203 1.9765625 21.6796875 C2.02893066 22.84226074 2.08129883 24.00483398 2.13525391 25.20263672 C2 28 2 28 0 30 C-0.99 30 -1.98 30 -3 30 C-3.99 27.03 -4.98 24.06 -6 21 C-4.02 21.99 -4.02 21.99 -2 23 C-2 23.66 -2 24.32 -2 25 C-1.34 24.67 -0.68 24.34 0 24 C0 16.08 0 8.16 0 0 Z " fill="#AB0C0C" transform="translate(256,162)"/>
<path d="M0 0 C0.33 0.66 0.66 1.32 1 2 C3.64 2 6.28 2 9 2 C9 2.66 9 3.32 9 4 C10.65 4 12.3 4 14 4 C16.42857143 10.28571429 16.42857143 10.28571429 15 14 C13.50178941 10.62902617 13 8.79557881 13 5 C8.13923506 4.6543314 8.13923506 4.6543314 3.6875 6.3125 C1.79571236 8.09397231 1.79571236 8.09397231 0 11 C0 7.37 0 3.74 0 0 Z " fill="#BA0A0C" transform="translate(200,155)"/>
<path d="M0 0 C1.5 1.375 1.5 1.375 3 3 C3 3.66 3 4.32 3 5 C3.66 5 4.32 5 5 5 C5 6.65 5 8.3 5 10 C5.66 10 6.32 10 7 10 C7 8.35 7 6.7 7 5 C7.33 6.32 7.66 7.64 8 9 C9.65 8.34 11.3 7.68 13 7 C13 7.99 13 8.98 13 10 C12.01 10 11.02 10 10 10 C10 10.66 10 11.32 10 12 C9.34 12 8.68 12 8 12 C7.67 14.31 7.34 16.62 7 19 C6.67 19 6.34 19 6 19 C4.70756464 14.8803623 3.73747375 11.33168317 4 7 C3.01 7.33 2.02 7.66 1 8 C0.26919734 6.02253397 -0.39421747 4.01927511 -1 2 C-0.67 1.34 -0.34 0.68 0 0 Z " fill="#B90605" transform="translate(245,183)"/>
<path d="M0 0 C0.33 0 0.66 0 1 0 C1.77528479 3.42573937 2.11918778 6.57239245 2.09765625 10.08203125 C2.09282227 11.47905273 2.09282227 11.47905273 2.08789062 12.90429688 C2.07951172 13.86400391 2.07113281 14.82371094 2.0625 15.8125 C2.05798828 16.79154297 2.05347656 17.77058594 2.04882812 18.77929688 C2.03708702 21.18622431 2.01915289 23.59312013 2 26 C4.97 26 7.94 26 11 26 C11 26.33 11 26.66 11 27 C7.7 27 4.4 27 1 27 C0.95101563 25.96359375 0.90203125 24.9271875 0.8515625 23.859375 C0.77650403 22.48955792 0.70095753 21.11976752 0.625 19.75 C0.5940625 19.06808594 0.563125 18.38617188 0.53125 17.68359375 C0.31393637 13.95304309 -0.15099031 11.23946498 -2 8 C-2.25 4.875 -2.25 4.875 -2 2 C-1.34 1.34 -0.68 0.68 0 0 Z " fill="#AF4F4E" transform="translate(315,190)"/>
<path d="M0 0 C2.45862401 -0.05383848 4.9160755 -0.09359038 7.375 -0.125 C8.42300781 -0.15013672 8.42300781 -0.15013672 9.4921875 -0.17578125 C11.32897486 -0.19344267 13.16601963 -0.10303261 15 0 C17 2 17 2 17.125 4.625 C17.08375 5.40875 17.0425 6.1925 17 7 C16.34 6.01 15.68 5.02 15 4 C14.01 4.495 14.01 4.495 13 5 C11.32345271 4.72057545 9.65391846 4.39171753 8 4 C8 3.34 8 2.68 8 2 C5.36 2 2.72 2 0 2 C0 1.34 0 0.68 0 0 Z " fill="#BB5452" transform="translate(201,155)"/>
<path d="M0 0 C2.97 0 5.94 0 9 0 C8.67 0.66 8.34 1.32 8 2 C5.03 1.505 5.03 1.505 2 1 C2 2.32 2 3.64 2 5 C2.66 5.33 3.32 5.66 4 6 C7 11.30769231 7 11.30769231 7 15 C7.66 15.33 8.32 15.66 9 16 C9 17.65 9 19.3 9 21 C6.69857565 19.21825212 5.19965609 17.83695835 4.51171875 14.953125 C4.27676898 12.9753389 4.13248542 10.98728128 4 9 C3.01 9 2.02 9 1 9 C0.67 6.03 0.34 3.06 0 0 Z " fill="#A90D0F" transform="translate(440,158)"/>
<path d="M0 0 C0.66 0.33 1.32 0.66 2 1 C1.86722656 1.60585937 1.73445312 2.21171875 1.59765625 2.8359375 C0.47417139 8.16634012 -0.28376203 13.3299964 -0.55859375 18.7734375 C-1.09405681 21.47444584 -2.22717752 22.92934334 -4 25 C-4.02688151 23.35425434 -4.04634123 21.70838587 -4.0625 20.0625 C-4.07410156 19.14597656 -4.08570313 18.22945312 -4.09765625 17.28515625 C-4 15 -4 15 -3 14 C-2.76807135 12.48530552 -2.58784762 10.96245438 -2.4375 9.4375 C-2.35371094 8.61121094 -2.26992187 7.78492188 -2.18359375 6.93359375 C-2.12300781 6.29550781 -2.06242188 5.65742188 -2 5 C-1.34 5 -0.68 5 0 5 C0 3.35 0 1.7 0 0 Z " fill="#B30A09" transform="translate(195,186)"/>
<path d="M0 0 C0.33 0.66 0.66 1.32 1 2 C1.66 2 2.32 2 3 2 C3.33 2.99 3.66 3.98 4 5 C2.68 5.33 1.36 5.66 0 6 C-0.1546875 7.6396875 -0.1546875 7.6396875 -0.3125 9.3125 C-0.99288632 12.9618448 -1.23580631 13.81168 -4 16 C-4.33 16.66 -4.66 17.32 -5 18 C-6.08078257 14.65939933 -6.14634751 13.32753967 -4.6875 10.0625 C-4.130625 9.051875 -3.57375 8.04125 -3 7 C-2.32204472 5.00379834 -1.65266469 3.00461299 -1 1 C-0.67 0.67 -0.34 0.34 0 0 Z " fill="#A91615" transform="translate(456,197)"/>
<path d="M0 0 C3.63 0 7.26 0 11 0 C11 3.63 11 7.26 11 11 C7.7 11 4.4 11 1 11 C1 10.67 1 10.34 1 10 C3.97 10 6.94 10 10 10 C9.34 9.67 8.68 9.34 8 9 C8 7.02 8 5.04 8 3 C5.69 3 3.38 3 1 3 C1 2.67 1 2.34 1 2 C2.299375 2.020625 3.59875 2.04125 4.9375 2.0625 C6.29165633 2.08399454 7.64756083 2.07148199 9 2 C9.33 1.67 9.66 1.34 10 1 C6.7 1 3.4 1 0 1 C0 0.67 0 0.34 0 0 Z " fill="#C55858" transform="translate(341,182)"/>
<path d="M0 0 C2.97 0.33 5.94 0.66 9 1 C11.875 7.625 11.875 7.625 13 11 C11 11 11 11 8.9375 9.3125 C6.82124375 6.78664577 6.35880982 5.22928839 6 2 C5.01 2 4.02 2 3 2 C3 3.32 3 4.64 3 6 C2.34 5.67 1.68 5.34 1 5 C0.375 2.4375 0.375 2.4375 0 0 Z " fill="#B30606" transform="translate(442,159)"/>
<path d="M0 0 C5.28 0 10.56 0 16 0 C16 3.3 16 6.6 16 10 C11.71 10 7.42 10 3 10 C3 9.67 3 9.34 3 9 C6.96 9 10.92 9 15 9 C14.34 6.36 13.68 3.72 13 1 C8.71 1 4.42 1 0 1 C0 0.67 0 0.34 0 0 Z " fill="#920D0E" transform="translate(370,159)"/>
<path d="M0 0 C0.33 0 0.66 0 1 0 C1 5.94 1 11.88 1 18 C0.34 18 -0.32 18 -1 18 C-1.33 19.98 -1.66 21.96 -2 24 C-2.66 24 -3.32 24 -4 24 C-2.68 16.08 -1.36 8.16 0 0 Z " fill="#BE5454" transform="translate(310,168)"/>
<path d="M0 0 C0.33 0 0.66 0 1 0 C1 3.3 1 6.6 1 10 C4.63 10 8.26 10 12 10 C11.67 10.66 11.34 11.32 11 12 C7.04 12 3.08 12 -1 12 C-2.09898702 8.70303895 -1.87124444 7.59505097 -1.0625 4.3125 C-0.86785156 3.50425781 -0.67320312 2.69601563 -0.47265625 1.86328125 C-0.31667969 1.24839844 -0.16070312 0.63351563 0 0 Z " fill="#A84B4E" transform="translate(188,208)"/>
<path d="M0 0 C1.32 0 2.64 0 4 0 C4.268125 1.093125 4.53625 2.18625 4.8125 3.3125 C5.94878208 6.84095487 6.50283744 7.61634483 9 10 C9 11.32 9 12.64 9 14 C10.65 14 12.3 14 14 14 C14 14.33 14 14.66 14 15 C11.69 15 9.38 15 7 15 C6.73445313 14.31292969 6.46890625 13.62585938 6.1953125 12.91796875 C5.84210938 12.01691406 5.48890625 11.11585938 5.125 10.1875 C4.77695312 9.29417969 4.42890625 8.40085938 4.0703125 7.48046875 C3.01167845 4.82288409 3.01167845 4.82288409 1 2 C0.34 2.66 -0.32 3.32 -1 4 C-0.67 2.68 -0.34 1.36 0 0 Z " fill="#A41E1C" transform="translate(456,202)"/>
<path d="M0 0 C0.66 0 1.32 0 2 0 C1.67 4.95 1.34 9.9 1 15 C4.3 15 7.6 15 11 15 C10.67 15.66 10.34 16.32 10 17 C8.35333797 16.8864371 6.70763918 16.75882619 5.0625 16.625 C4.14597656 16.55539063 3.22945313 16.48578125 2.28515625 16.4140625 C1.53105469 16.27742188 0.77695312 16.14078125 0 16 C-1.43316898 13.13366205 -1.13200361 10.62764499 -1.125 7.4375 C-1.12757813 6.26058594 -1.13015625 5.08367187 -1.1328125 3.87109375 C-1 1 -1 1 0 0 Z " fill="#991418" transform="translate(340,168)"/>
<path d="M0 0 C1.5067748 2.79738782 2.48224115 5.40322432 3.1875 8.5 C3.36667969 9.2528125 3.54585937 10.005625 3.73046875 10.78125 C4.01801942 13.14833379 3.72248395 14.74544015 3 17 C3 16.01 3 15.02 3 14 C2.34 14 1.68 14 1 14 C-0.44209192 9.49346274 -1.34223148 5.79124078 -1 1 C-0.67 0.67 -0.34 0.34 0 0 Z " fill="#A4292B" transform="translate(216,158)"/>
<path d="M0 0 C0.66 0 1.32 0 2 0 C2.36552803 1.41377782 2.71695495 2.83120576 3.0625 4.25 C3.25972656 5.03890625 3.45695312 5.8278125 3.66015625 6.640625 C4.0220413 9.15302232 3.884416 10.63481892 3 13 C2.34 13.66 1.68 14.32 1 15 C-0.44207941 12.11584117 -0.09394887 9.58278472 -0.0625 6.375 C-0.05347656 5.18648437 -0.04445313 3.99796875 -0.03515625 2.7734375 C-0.02355469 1.85820312 -0.01195312 0.94296875 0 0 Z " fill="#B31F20" transform="translate(300,167)"/>
<path d="M0 0 C0.99 0 1.98 0 3 0 C3.19335938 0.61488281 3.38671875 1.22976562 3.5859375 1.86328125 C3.84632813 2.67152344 4.10671875 3.47976562 4.375 4.3125 C4.63023437 5.11300781 4.88546875 5.91351563 5.1484375 6.73828125 C5.98831811 9.22724528 5.98831811 9.22724528 8 12 C8.07905064 14.33199388 8.08798769 16.66832622 8 19 C5.85727214 15.7859082 4.37881715 12.47398867 2.875 8.9375 C2.59785156 8.30005859 2.32070313 7.66261719 2.03515625 7.00585938 C0 2.24880696 0 2.24880696 0 0 Z " fill="#AB4041" transform="translate(441,167)"/>
<path d="M0 0 C0.66 0.33 1.32 0.66 2 1 C1.67 2.32 1.34 3.64 1 5 C-3.62 5 -8.24 5 -13 5 C-13.33 4.01 -13.66 3.02 -14 2 C-13.07316406 1.93941406 -12.14632813 1.87882813 -11.19140625 1.81640625 C-9.39509766 1.69072266 -9.39509766 1.69072266 -7.5625 1.5625 C-5.77005859 1.44068359 -5.77005859 1.44068359 -3.94140625 1.31640625 C-1.11429756 1.32343886 -1.11429756 1.32343886 0 0 Z " fill="#C14B4C" transform="translate(383,165)"/>
<path d="M0 0 C1.62106548 2.94924939 2.48443268 5.63806994 3.125 8.9375 C3.37636719 10.18853516 3.37636719 10.18853516 3.6328125 11.46484375 C4.00211177 14.01458019 4.06442528 16.42759067 4 19 C3.67 18.34 3.34 17.68 3 17 C2.34 17 1.68 17 1 17 C-0.22517308 11.33357449 -0.09228867 5.76291482 0 0 Z " fill="#B3403E" transform="translate(220,177)"/>
<path d="M0 0 C1.60875 0.020625 3.2175 0.04125 4.875 0.0625 C4.875 4.0225 4.875 7.9825 4.875 12.0625 C4.545 12.0625 4.215 12.0625 3.875 12.0625 C3.545 9.0925 3.215 6.1225 2.875 3.0625 C-0.095 2.7325 -3.065 2.4025 -6.125 2.0625 C-6.455 3.3825 -6.785 4.7025 -7.125 6.0625 C-7.125 4.4125 -7.125 2.7625 -7.125 1.0625 C-4.60024538 -0.19987731 -2.81299534 -0.03606404 0 0 Z " fill="#CE757B" transform="translate(397.125,156.9375)"/>
<path d="M0 0 C0.66 0.33 1.32 0.66 2 1 C2.33 2.32 2.66 3.64 3 5 C6.3 5.33 9.6 5.66 13 6 C13 6.66 13 7.32 13 8 C11.20866022 8.05391993 9.41686101 8.09275571 7.625 8.125 C6.62726563 8.14820313 5.62953125 8.17140625 4.6015625 8.1953125 C2 8 2 8 0 6 C-0.6875 3.4375 -0.6875 3.4375 -1 1 C-0.67 0.67 -0.34 0.34 0 0 Z " fill="#BB5451" transform="translate(253,210)"/>
<path d="M0 0 C0.33 0 0.66 0 1 0 C1.33 3.96 1.66 7.92 2 12 C4.97 12.495 4.97 12.495 8 13 C4.91190305 14.76462683 3.76687864 15 0 15 C-1.23689062 12.52621876 -1.13310087 10.82084683 -1.125 8.0625 C-1.12757813 7.18722656 -1.13015625 6.31195313 -1.1328125 5.41015625 C-1 3 -1 3 0 0 Z " fill="#A40907" transform="translate(287,201)"/>
<path d="M0 0 C0.33 0 0.66 0 1 0 C1.18451025 10.55808656 1.18451025 10.55808656 0 15 C-0.66 15 -1.32 15 -2 15 C-2.33 15.66 -2.66 16.32 -3 17 C-2.69268013 14.35346869 -2.37940678 11.707885 -2.0625 9.0625 C-1.97548828 8.30775391 -1.88847656 7.55300781 -1.79882812 6.77539062 C-1.11328125 1.11328125 -1.11328125 1.11328125 0 0 Z " fill="#C15A5C" transform="translate(199,156)"/>
<path d="M0 0 C0.66 0.99 1.32 1.98 2 3 C1.125 6.1875 1.125 6.1875 0 9 C-0.66 9 -1.32 9 -2 9 C-2.33 10.98 -2.66 12.96 -3 15 C-3.99 15.33 -4.98 15.66 -6 16 C-4.25192871 10.53262809 -2.34205919 5.24175152 0 0 Z " fill="#AD3A3B" transform="translate(464,156)"/>
<path d="M0 0 C1.4370809 -0.05422947 2.87475462 -0.09289723 4.3125 -0.125 C5.11300781 -0.14820313 5.91351563 -0.17140625 6.73828125 -0.1953125 C9 0 9 0 12 2 C8.17010894 3.80230168 5.21878192 4.19622241 1 4 C0.67 2.68 0.34 1.36 0 0 Z " fill="#A20C0A" transform="translate(465,156)"/>
<path d="M0 0 C1.51400391 0.01740234 1.51400391 0.01740234 3.05859375 0.03515625 C4.07050781 0.04417969 5.08242188 0.05320313 6.125 0.0625 C7.29869141 0.07990234 7.29869141 0.07990234 8.49609375 0.09765625 C4.9798462 2.03923642 2.52452865 2.28076693 -1.50390625 2.09765625 C-1.17390625 2.75765625 -0.84390625 3.41765625 -0.50390625 4.09765625 C-0.46368234 6.43064285 -0.46070378 8.76472291 -0.50390625 11.09765625 C-2.81084668 7.6372456 -3.12447137 5.19555294 -3.50390625 1.09765625 C-2.50390625 0.09765625 -2.50390625 0.09765625 0 0 Z " fill="#C57072" transform="translate(441.50390625,155.90234375)"/>
<path d="M0 0 C0.33 0 0.66 0 1 0 C1.125 5.75 1.125 5.75 0 8 C0.66 8.33 1.32 8.66 2 9 C1.01 10.485 1.01 10.485 0 12 C0.020625 13.010625 0.04125 14.02125 0.0625 15.0625 C0.041875 16.031875 0.02125 17.00125 0 18 C-0.99 18.66 -1.98 19.32 -3 20 C-3.40850553 12.91923749 -1.90420731 6.80074041 0 0 Z " fill="#B80909" transform="translate(199,166)"/>
<path d="M0 0 C4.29 0 8.58 0 13 0 C12.67 1.65 12.34 3.3 12 5 C11.34 5 10.68 5 10 5 C10 4.34 10 3.68 10 3 C8.54176788 2.9729957 7.08339325 2.95360213 5.625 2.9375 C4.40683594 2.92009766 4.40683594 2.92009766 3.1640625 2.90234375 C0.95062858 2.85533666 0.95062858 2.85533666 -1 4 C-0.67 2.68 -0.34 1.36 0 0 Z " fill="#C04A4E" transform="translate(313,158)"/>
<path d="M0 0 C0.99 0 1.98 0 3 0 C3 0.66 3 1.32 3 2 C3.66 2 4.32 2 5 2 C4.125 5.875 4.125 5.875 3 7 C0.13732433 7.07325168 -2.700719 7.09238205 -5.5625 7.0625 C-6.36880859 7.05798828 -7.17511719 7.05347656 -8.00585938 7.04882812 C-10.00393756 7.03700518 -12.00197783 7.01906914 -14 7 C-14 6.67 -14 6.34 -14 6 C-8.72 6 -3.44 6 2 6 C2 4.35 2 2.7 2 1 C1.34 0.67 0.68 0.34 0 0 Z " fill="#B20806" transform="translate(410,208)"/>
<path d="M0 0 C0.91007813 0.10183594 1.82015625 0.20367187 2.7578125 0.30859375 C3.45648438 0.39238281 4.15515625 0.47617188 4.875 0.5625 C4.875 1.2225 4.875 1.8825 4.875 2.5625 C3.82699219 2.65337891 3.82699219 2.65337891 2.7578125 2.74609375 C1.84773437 2.82988281 0.93765625 2.91367188 0 3 C-0.90492188 3.08121094 -1.80984375 3.16242188 -2.7421875 3.24609375 C-5.13610861 3.43239285 -5.13610861 3.43239285 -7.125 4.5625 C-7.125 3.2425 -7.125 1.9225 -7.125 0.5625 C-4.50184968 -0.74907516 -2.89466564 -0.33399988 0 0 Z " fill="#AC3E3D" transform="translate(239.125,156.4375)"/>
<path d="M0 0 C0.33 0 0.66 0 1 0 C1.33 7.92 1.66 15.84 2 24 C1.01 24.33 0.02 24.66 -1 25 C-0.67 16.75 -0.34 8.5 0 0 Z " fill="#D4717B" transform="translate(255,162)"/>
<path d="M0 0 C4.95 0 9.9 0 15 0 C14.67 0.66 14.34 1.32 14 2 C10.04 2 6.08 2 2 2 C1.67 4.64 1.34 7.28 1 10 C0.67 10 0.34 10 0 10 C0 6.7 0 3.4 0 0 Z " fill="#C16568" transform="translate(285,158)"/>
<path d="M0 0 C4.29 0 8.58 0 13 0 C12.67 2.31 12.34 4.62 12 7 C11.34 6.67 10.68 6.34 10 6 C10 5.01 10 4.02 10 3 C6.7 2.34 3.4 1.68 0 1 C0 0.67 0 0.34 0 0 Z " fill="#C88786" transform="translate(466,155)"/>
<path d="M0 0 C-0.375 1.9375 -0.375 1.9375 -1 4 C-1.99 4.495 -1.99 4.495 -3 5 C-3.40729228 7.32156597 -3.74438677 9.6568787 -4 12 C-4.33 12 -4.66 12 -5 12 C-5.24954005 10.56589632 -5.47392642 9.12739928 -5.6875 7.6875 C-5.81511719 6.88699219 -5.94273437 6.08648437 -6.07421875 5.26171875 C-6 3 -6 3 -4.70703125 1.20703125 C-3 0 -3 0 0 0 Z " fill="#B32428" transform="translate(317,160)"/>
<path d="M0 0 C1.65 0 3.3 0 5 0 C5 1.32 5 2.64 5 4 C5.99 4.33 6.98 4.66 8 5 C7.01 5.495 7.01 5.495 6 6 C6 7.65 6 9.3 6 11 C5.01 10.67 4.02 10.34 3 10 C3.14648438 6.97265625 3.14648438 6.97265625 3.29296875 3.9453125 C3.19628906 3.30335938 3.09960938 2.66140625 3 2 C2.01 1.34 1.02 0.68 0 0 Z " fill="#B90805" transform="translate(294,161)"/>
<path d="M0 0 C0.99 0.495 0.99 0.495 2 1 C3.08209933 5.68909708 3.21980248 8.69097166 1 13 C0.67 13 0.34 13 0 13 C0 8.71 0 4.42 0 0 Z " fill="#912724" transform="translate(369,169)"/>
<path d="M0 0 C0.66 0 1.32 0 2 0 C2.33 1.65 2.66 3.3 3 5 C-0.99560608 7.83022097 -4.42737323 6.76210446 -9 6 C-9 5.67 -9 5.34 -9 5 C-6.03 5 -3.06 5 0 5 C0 3.35 0 1.7 0 0 Z " fill="#AA6667" transform="translate(369,211)"/>
<path d="M0 0 C5.94155844 5.74350649 5.94155844 5.74350649 6.125 9.6875 C6.08375 10.450625 6.0425 11.21375 6 12 C5.34 12 4.68 12 4 12 C3.67 10.02 3.34 8.04 3 6 C2.01 5.67 1.02 5.34 0 5 C0 3.35 0 1.7 0 0 Z " fill="#AB0B0A" transform="translate(461,204)"/>
<path d="M0 0 C0.66 0 1.32 0 2 0 C2.23509196 4.81938524 1.45184478 8.46298506 0 13 C-0.66 13 -1.32 13 -2 13 C-1.48041715 8.62065881 -0.94324258 4.31196609 0 0 Z " fill="#C05C57" transform="translate(191,194)"/>
<path d="M0 0 C1.90318884 2.85478326 2.4619099 4.41941308 3.125 7.6875 C3.29257813 8.49574219 3.46015625 9.30398437 3.6328125 10.13671875 C3.75398437 10.75160156 3.87515625 11.36648437 4 12 C2.05078125 11.28515625 2.05078125 11.28515625 0 10 C-0.64453125 7.87109375 -0.64453125 7.87109375 -0.8125 5.4375 C-0.88082031 4.63183594 -0.94914063 3.82617188 -1.01953125 2.99609375 C-1 1 -1 1 0 0 Z " fill="#B93D41" transform="translate(250,173)"/>
<path d="M0 0 C0.33 0 0.66 0 1 0 C2.35384615 7.38461538 2.35384615 7.38461538 0.5625 10.5 C0.046875 10.995 -0.46875 11.49 -1 12 C-2.04184255 8.61401171 -2.23042499 5.53318313 -2 2 C-1.34 1.34 -0.68 0.68 0 0 Z " fill="#BB3E41" transform="translate(315,190)"/>
<path d="M0 0 C0.95465783 2.16967689 1.14401212 3.56328793 0.3984375 5.82421875 C-0.35870385 7.5684743 -1.17609198 9.28627131 -2 11 C-3.32 10.34 -4.64 9.68 -6 9 C-4.625 7.5 -4.625 7.5 -3 6 C-2.34 6 -1.68 6 -1 6 C-0.67 4.02 -0.34 2.04 0 0 Z " fill="#A90A0A" transform="translate(462,165)"/>
<path d="M0 0 C0.33 0 0.66 0 1 0 C1.66 4.29 2.32 8.58 3 13 C2.34 13 1.68 13 1 13 C-0.32229189 10.35541621 -0.09677194 8.32238699 -0.0625 5.375 C-0.05347656 4.37210938 -0.04445312 3.36921875 -0.03515625 2.3359375 C-0.02355469 1.56507813 -0.01195312 0.79421875 0 0 Z " fill="#BE615B" transform="translate(224,197)"/>
<path d="M0 0 C2.64465038 3.1254959 3.84414715 6.08788267 5 10 C4.34 10.66 3.68 11.32 3 12 C3 10.68 3 9.36 3 8 C2.34 8 1.68 8 1 8 C0.67 5.36 0.34 2.72 0 0 Z " fill="#B95C5E" transform="translate(466,191)"/>
<path d="M0 0 C0.33 0 0.66 0 1 0 C1 1.98 1 3.96 1 6 C0.34 6 -0.32 6 -1 6 C-1.33 7.98 -1.66 9.96 -2 12 C-2.66 11.67 -3.32 11.34 -4 11 C-2.95902388 7.13351728 -1.96301592 3.50538557 0 0 Z " fill="#A02B24" transform="translate(450,186)"/>
<path d="M0 0 C0.33 0 0.66 0 1 0 C1 3.96 1 7.92 1 12 C0.34 12 -0.32 12 -1 12 C-2.09898702 8.70303895 -1.87124444 7.59505097 -1.0625 4.3125 C-0.86785156 3.50425781 -0.67320312 2.69601563 -0.47265625 1.86328125 C-0.31667969 1.24839844 -0.16070312 0.63351563 0 0 Z " fill="#B95255" transform="translate(188,208)"/>
<path d="M0 0 C0.66 0 1.32 0 2 0 C1.46930939 3.82097239 0.50298434 6.06171403 -2 9 C-2.125 5.625 -2.125 5.625 -2 2 C-1.34 1.34 -0.68 0.68 0 0 Z " fill="#B44748" transform="translate(469,173)"/>
<path d="M0 0 C1.32 0 2.64 0 4 0 C5.35439668 2.70879335 5.06501451 5.00933268 5 8 C3.66666667 6 2.33333333 4 1 2 C0.34 2.66 -0.32 3.32 -1 4 C-0.67 2.68 -0.34 1.36 0 0 Z " fill="#BB5352" transform="translate(456,202)"/>
<path d="M0 0 C0.66 0.33 1.32 0.66 2 1 C1.67 2.65 1.34 4.3 1 6 C0.34 6 -0.32 6 -1 6 C-1 7.65 -1 9.3 -1 11 C-1.33 11 -1.66 11 -2 11 C-1.85957123 9.35369672 -1.71250671 7.70795821 -1.5625 6.0625 C-1.48128906 5.14597656 -1.40007812 4.22945312 -1.31640625 3.28515625 C-1 1 -1 1 0 0 Z " fill="#AB0D0E" transform="translate(312,199)"/>
<path d="M0 0 C1.5625 1.4375 1.5625 1.4375 3 4 C2.96846324 7.05380927 2.53266629 9.99653222 2 13 C1.67 13 1.34 13 1 13 C-0.10228696 8.59085217 -0.07654536 4.51617599 0 0 Z " fill="#AF0E10" transform="translate(218,172)"/>
<path d="M0 0 C0.33 0.99 0.66 1.98 1 3 C1.66 3 2.32 3 3 3 C3 4.32 3 5.64 3 7 C2.34 7 1.68 7 1 7 C0.67 7.99 0.34 8.98 0 10 C0 6.7 0 3.4 0 0 Z " fill="#A10B0A" transform="translate(449,179)"/>
</svg>
